<mxfile host="65bd71144e">
    <diagram id="MDNBk3WByiITtkN_t_Je" name="Page-1">
        <mxGraphModel dx="-1046" dy="2996" grid="1" gridSize="10" guides="1" tooltips="1" connect="1" arrows="1" fold="1" page="1" pageScale="1" pageWidth="850" pageHeight="1100" math="0" shadow="0">
            <root>
                <mxCell id="0"/>
                <mxCell id="1" parent="0"/>
                <mxCell id="525" value="" style="ellipse;whiteSpace=wrap;html=1;aspect=fixed;fontSize=30;strokeColor=#000000;fillColor=#FFD966;opacity=80;" parent="1" vertex="1">
                    <mxGeometry x="4325.74" y="168" width="214.83" height="214.83" as="geometry"/>
                </mxCell>
                <mxCell id="526" value="" style="ellipse;whiteSpace=wrap;html=1;aspect=fixed;fillColor=#67AB9F;strokeWidth=4;strokeColor=#000000;" parent="1" vertex="1">
                    <mxGeometry x="4412.369999999999" y="209.90999999999997" width="40" height="40" as="geometry"/>
                </mxCell>
                <mxCell id="527" value="" style="endArrow=none;html=1;rounded=0;strokeColor=#000000;strokeWidth=4;exitX=0;exitY=0;exitDx=0;exitDy=0;entryX=1;entryY=1;entryDx=0;entryDy=0;" parent="1" source="526" target="526" edge="1">
                    <mxGeometry width="50" height="50" relative="1" as="geometry">
                        <mxPoint x="4428.15" y="241.65999999999997" as="sourcePoint"/>
                        <mxPoint x="4453.15" y="210.40999999999997" as="targetPoint"/>
                    </mxGeometry>
                </mxCell>
                <mxCell id="528" value="" style="endArrow=none;html=1;rounded=0;strokeColor=#000000;strokeWidth=4;exitX=0;exitY=1;exitDx=0;exitDy=0;entryX=1;entryY=0;entryDx=0;entryDy=0;" parent="1" source="526" target="526" edge="1">
                    <mxGeometry width="50" height="50" relative="1" as="geometry">
                        <mxPoint x="4384.007864376269" y="186.48233047033625" as="sourcePoint"/>
                        <mxPoint x="4412.461484117604" y="221.62341811969657" as="targetPoint"/>
                    </mxGeometry>
                </mxCell>
                <mxCell id="529" style="edgeStyle=orthogonalEdgeStyle;jumpStyle=none;jumpSize=6;orthogonalLoop=1;jettySize=auto;html=1;entryX=0;entryY=0.5;entryDx=0;entryDy=0;startArrow=none;startFill=0;endArrow=classic;endFill=1;startSize=1;endSize=1;strokeColor=#000000;strokeWidth=3;rounded=1;exitX=0.5;exitY=0;exitDx=0;exitDy=0;" parent="1" source="543" target="526" edge="1">
                    <mxGeometry relative="1" as="geometry">
                        <Array as="points">
                            <mxPoint x="4388.74" y="230"/>
                            <mxPoint x="4412.74" y="230"/>
                        </Array>
                    </mxGeometry>
                </mxCell>
                <mxCell id="530" value="" style="ellipse;whiteSpace=wrap;html=1;aspect=fixed;fillColor=#e1d5e7;strokeColor=#000000;strokeWidth=4;" parent="1" vertex="1">
                    <mxGeometry x="4395.74" y="293.4200000000001" width="40" height="40" as="geometry"/>
                </mxCell>
                <mxCell id="531" value="" style="endArrow=none;html=1;rounded=0;strokeColor=#000000;entryX=0.5;entryY=0;entryDx=0;entryDy=0;exitX=0.5;exitY=1;exitDx=0;exitDy=0;strokeWidth=4;" parent="1" source="530" target="530" edge="1">
                    <mxGeometry width="50" height="50" relative="1" as="geometry">
                        <mxPoint x="4423.15" y="256.40999999999997" as="sourcePoint"/>
                        <mxPoint x="4473.15" y="206.40999999999997" as="targetPoint"/>
                    </mxGeometry>
                </mxCell>
                <mxCell id="532" style="edgeStyle=orthogonalEdgeStyle;rounded=1;jumpStyle=none;jumpSize=6;orthogonalLoop=1;jettySize=auto;html=1;entryX=0.5;entryY=0;entryDx=0;entryDy=0;startArrow=none;startFill=0;endArrow=classic;endFill=1;startSize=1;endSize=1;strokeColor=#000000;strokeWidth=4;" parent="1" source="526" target="530" edge="1">
                    <mxGeometry relative="1" as="geometry"/>
                </mxCell>
                <mxCell id="533" value="" style="endArrow=none;html=1;rounded=0;strokeColor=#000000;entryX=0;entryY=0.5;entryDx=0;entryDy=0;exitX=1;exitY=0.5;exitDx=0;exitDy=0;strokeWidth=4;" parent="1" source="530" target="530" edge="1">
                    <mxGeometry width="50" height="50" relative="1" as="geometry">
                        <mxPoint x="4473.15" y="156.40999999999997" as="sourcePoint"/>
                        <mxPoint x="4473.15" y="96.40999999999997" as="targetPoint"/>
                    </mxGeometry>
                </mxCell>
                <mxCell id="534" style="edgeStyle=orthogonalEdgeStyle;rounded=1;orthogonalLoop=1;jettySize=auto;html=1;exitX=1;exitY=0.5;exitDx=0;exitDy=0;entryX=1;entryY=0.5;entryDx=0;entryDy=0;fontSize=30;fontColor=#990000;startArrow=none;startFill=0;endArrow=classic;endFill=1;strokeWidth=2;fillColor=#f8cecc;strokeColor=#b85450;" parent="1" source="535" target="525" edge="1">
                    <mxGeometry relative="1" as="geometry">
                        <Array as="points"/>
                    </mxGeometry>
                </mxCell>
                <mxCell id="535" value="" style="rounded=0;whiteSpace=wrap;html=1;glass=0;strokeColor=#000000;strokeWidth=4;fillColor=#FFD966;" parent="1" vertex="1">
                    <mxGeometry x="4505.74" y="257.4200000000001" width="20" height="36" as="geometry"/>
                </mxCell>
                <mxCell id="536" value="" style="endArrow=none;html=1;rounded=0;startSize=1;endSize=1;strokeColor=#000000;strokeWidth=4;jumpStyle=none;jumpSize=6;" parent="1" edge="1">
                    <mxGeometry width="50" height="50" relative="1" as="geometry">
                        <mxPoint x="4505.739999999998" y="291.4200000000001" as="sourcePoint"/>
                        <mxPoint x="4515.739999999998" y="280.9200000000001" as="targetPoint"/>
                    </mxGeometry>
                </mxCell>
                <mxCell id="537" value="" style="endArrow=none;html=1;rounded=0;startSize=1;endSize=1;strokeColor=#000000;strokeWidth=4;jumpStyle=none;jumpSize=6;" parent="1" edge="1">
                    <mxGeometry width="50" height="50" relative="1" as="geometry">
                        <mxPoint x="4515.739999999998" y="280.9200000000001" as="sourcePoint"/>
                        <mxPoint x="4525.739999999998" y="290.9200000000001" as="targetPoint"/>
                    </mxGeometry>
                </mxCell>
                <mxCell id="538" style="edgeStyle=orthogonalEdgeStyle;rounded=0;jumpStyle=none;jumpSize=6;orthogonalLoop=1;jettySize=auto;html=1;entryX=0.214;entryY=0.991;entryDx=0;entryDy=0;startArrow=none;startFill=0;endArrow=classic;endFill=1;startSize=1;endSize=1;strokeColor=#000000;strokeWidth=2;entryPerimeter=0;" parent="1" source="530" target="541" edge="1">
                    <mxGeometry relative="1" as="geometry">
                        <Array as="points">
                            <mxPoint x="4445.74" y="313"/>
                            <mxPoint x="4445.74" y="275"/>
                            <mxPoint x="4466.74" y="275"/>
                        </Array>
                    </mxGeometry>
                </mxCell>
                <mxCell id="539" style="rounded=1;orthogonalLoop=1;jettySize=auto;html=1;exitX=0;exitY=0.5;exitDx=0;exitDy=0;entryX=0;entryY=0.5;entryDx=0;entryDy=0;fontSize=30;fontColor=#990000;startArrow=none;startFill=0;endArrow=classic;endFill=1;strokeWidth=2;edgeStyle=orthogonalEdgeStyle;" parent="1" source="525" target="530" edge="1">
                    <mxGeometry relative="1" as="geometry">
                        <Array as="points">
                            <mxPoint x="4365.74" y="275"/>
                            <mxPoint x="4365.74" y="313"/>
                            <mxPoint x="4395.74" y="313"/>
                        </Array>
                    </mxGeometry>
                </mxCell>
                <mxCell id="540" style="edgeStyle=orthogonalEdgeStyle;orthogonalLoop=1;jettySize=auto;html=1;entryX=0;entryY=0.25;entryDx=0;entryDy=0;fontSize=12;fontColor=#000000;strokeWidth=2;endSize=0;rounded=1;fillColor=#f8cecc;strokeColor=#b85450;" parent="1" source="541" target="535" edge="1">
                    <mxGeometry relative="1" as="geometry">
                        <Array as="points">
                            <mxPoint x="4495.74" y="287"/>
                            <mxPoint x="4495.74" y="266"/>
                        </Array>
                    </mxGeometry>
                </mxCell>
                <mxCell id="541" value="" style="shape=trapezoid;perimeter=trapezoidPerimeter;whiteSpace=wrap;html=1;fixedSize=1;fontSize=12;fontColor=#000000;strokeWidth=1;fillColor=#FFD966;rotation=90;size=7.5;" parent="1" vertex="1">
                    <mxGeometry x="4452.37" y="280.91999999999996" width="41.25" height="12.5" as="geometry"/>
                </mxCell>
                <mxCell id="542" value="" style="endArrow=none;html=1;rounded=1;fontSize=12;fontColor=#000000;startSize=0;endSize=0;strokeWidth=4;entryX=0.5;entryY=0;entryDx=0;entryDy=0;startArrow=none;startFill=0;endFill=0;" parent="1" target="525" edge="1">
                    <mxGeometry width="50" height="50" relative="1" as="geometry">
                        <mxPoint x="4432.74" y="98" as="sourcePoint"/>
                        <mxPoint x="4425.74" y="88" as="targetPoint"/>
                    </mxGeometry>
                </mxCell>
                <mxCell id="544" style="edgeStyle=orthogonalEdgeStyle;rounded=0;orthogonalLoop=1;jettySize=auto;html=1;fontSize=30;fontColor=#990000;startArrow=none;startFill=0;endArrow=none;endFill=0;strokeWidth=5;fillColor=#f8cecc;exitX=0.561;exitY=-0.103;exitDx=0;exitDy=0;exitPerimeter=0;" parent="1" source="708" edge="1">
                    <mxGeometry relative="1" as="geometry">
                        <mxPoint x="4325.65" y="275.3199999999997" as="targetPoint"/>
                        <Array as="points">
                            <mxPoint x="4262" y="275"/>
                        </Array>
                        <mxPoint x="4260.74" y="275" as="sourcePoint"/>
                    </mxGeometry>
                </mxCell>
                <mxCell id="545" value="" style="ellipse;whiteSpace=wrap;html=1;aspect=fixed;fontSize=30;strokeColor=#000000;fillColor=#FFD966;opacity=80;" parent="1" vertex="1">
                    <mxGeometry x="4605.57" y="166" width="214.83" height="214.83" as="geometry"/>
                </mxCell>
                <mxCell id="546" value="" style="ellipse;whiteSpace=wrap;html=1;aspect=fixed;fillColor=#67AB9F;strokeWidth=4;strokeColor=#000000;" parent="1" vertex="1">
                    <mxGeometry x="4692.199999999999" y="207.90999999999997" width="40" height="40" as="geometry"/>
                </mxCell>
                <mxCell id="547" value="" style="endArrow=none;html=1;rounded=0;strokeColor=#000000;strokeWidth=4;exitX=0;exitY=0;exitDx=0;exitDy=0;entryX=1;entryY=1;entryDx=0;entryDy=0;" parent="1" source="546" target="546" edge="1">
                    <mxGeometry width="50" height="50" relative="1" as="geometry">
                        <mxPoint x="4707.98" y="239.65999999999997" as="sourcePoint"/>
                        <mxPoint x="4732.98" y="208.40999999999997" as="targetPoint"/>
                    </mxGeometry>
                </mxCell>
                <mxCell id="548" value="" style="endArrow=none;html=1;rounded=0;strokeColor=#000000;strokeWidth=4;exitX=0;exitY=1;exitDx=0;exitDy=0;entryX=1;entryY=0;entryDx=0;entryDy=0;" parent="1" source="546" target="546" edge="1">
                    <mxGeometry width="50" height="50" relative="1" as="geometry">
                        <mxPoint x="4663.837864376269" y="184.48233047033625" as="sourcePoint"/>
                        <mxPoint x="4692.291484117604" y="219.62341811969657" as="targetPoint"/>
                    </mxGeometry>
                </mxCell>
                <mxCell id="549" style="edgeStyle=orthogonalEdgeStyle;jumpStyle=none;jumpSize=6;orthogonalLoop=1;jettySize=auto;html=1;entryX=0;entryY=0.5;entryDx=0;entryDy=0;startArrow=none;startFill=0;endArrow=classic;endFill=1;startSize=1;endSize=1;strokeColor=#000000;strokeWidth=3;rounded=1;exitX=0.5;exitY=0;exitDx=0;exitDy=0;" parent="1" target="546" edge="1">
                    <mxGeometry relative="1" as="geometry">
                        <Array as="points">
                            <mxPoint x="4668.57" y="228"/>
                            <mxPoint x="4692.57" y="228"/>
                        </Array>
                        <mxPoint x="4668.279999999999" y="248.91000000000008" as="sourcePoint"/>
                    </mxGeometry>
                </mxCell>
                <mxCell id="550" value="" style="ellipse;whiteSpace=wrap;html=1;aspect=fixed;fillColor=#e1d5e7;strokeColor=#000000;strokeWidth=4;" parent="1" vertex="1">
                    <mxGeometry x="4675.57" y="291.4200000000001" width="40" height="40" as="geometry"/>
                </mxCell>
                <mxCell id="551" value="" style="endArrow=none;html=1;rounded=0;strokeColor=#000000;entryX=0.5;entryY=0;entryDx=0;entryDy=0;exitX=0.5;exitY=1;exitDx=0;exitDy=0;strokeWidth=4;" parent="1" source="550" target="550" edge="1">
                    <mxGeometry width="50" height="50" relative="1" as="geometry">
                        <mxPoint x="4702.98" y="254.40999999999997" as="sourcePoint"/>
                        <mxPoint x="4752.98" y="204.40999999999997" as="targetPoint"/>
                    </mxGeometry>
                </mxCell>
                <mxCell id="552" style="edgeStyle=orthogonalEdgeStyle;rounded=1;jumpStyle=none;jumpSize=6;orthogonalLoop=1;jettySize=auto;html=1;entryX=0.5;entryY=0;entryDx=0;entryDy=0;startArrow=none;startFill=0;endArrow=classic;endFill=1;startSize=1;endSize=1;strokeColor=#000000;strokeWidth=4;" parent="1" source="546" target="550" edge="1">
                    <mxGeometry relative="1" as="geometry"/>
                </mxCell>
                <mxCell id="553" value="" style="endArrow=none;html=1;rounded=0;strokeColor=#000000;entryX=0;entryY=0.5;entryDx=0;entryDy=0;exitX=1;exitY=0.5;exitDx=0;exitDy=0;strokeWidth=4;" parent="1" source="550" target="550" edge="1">
                    <mxGeometry width="50" height="50" relative="1" as="geometry">
                        <mxPoint x="4752.98" y="154.40999999999997" as="sourcePoint"/>
                        <mxPoint x="4752.98" y="94.40999999999997" as="targetPoint"/>
                    </mxGeometry>
                </mxCell>
                <mxCell id="554" style="edgeStyle=orthogonalEdgeStyle;rounded=1;orthogonalLoop=1;jettySize=auto;html=1;exitX=1;exitY=0.5;exitDx=0;exitDy=0;entryX=1;entryY=0.5;entryDx=0;entryDy=0;fontSize=30;fontColor=#990000;startArrow=none;startFill=0;endArrow=classic;endFill=1;strokeWidth=2;fillColor=#f8cecc;strokeColor=#b85450;" parent="1" source="555" target="545" edge="1">
                    <mxGeometry relative="1" as="geometry">
                        <Array as="points"/>
                    </mxGeometry>
                </mxCell>
                <mxCell id="555" value="" style="rounded=0;whiteSpace=wrap;html=1;glass=0;strokeColor=#000000;strokeWidth=4;fillColor=#FFD966;" parent="1" vertex="1">
                    <mxGeometry x="4785.57" y="255.42000000000007" width="20" height="36" as="geometry"/>
                </mxCell>
                <mxCell id="556" value="" style="endArrow=none;html=1;rounded=0;startSize=1;endSize=1;strokeColor=#000000;strokeWidth=4;jumpStyle=none;jumpSize=6;" parent="1" edge="1">
                    <mxGeometry width="50" height="50" relative="1" as="geometry">
                        <mxPoint x="4785.569999999998" y="289.4200000000001" as="sourcePoint"/>
                        <mxPoint x="4795.569999999998" y="278.9200000000001" as="targetPoint"/>
                    </mxGeometry>
                </mxCell>
                <mxCell id="557" value="" style="endArrow=none;html=1;rounded=0;startSize=1;endSize=1;strokeColor=#000000;strokeWidth=4;jumpStyle=none;jumpSize=6;" parent="1" edge="1">
                    <mxGeometry width="50" height="50" relative="1" as="geometry">
                        <mxPoint x="4795.569999999998" y="278.9200000000001" as="sourcePoint"/>
                        <mxPoint x="4805.569999999998" y="288.9200000000001" as="targetPoint"/>
                    </mxGeometry>
                </mxCell>
                <mxCell id="558" style="edgeStyle=orthogonalEdgeStyle;rounded=0;jumpStyle=none;jumpSize=6;orthogonalLoop=1;jettySize=auto;html=1;entryX=0.214;entryY=0.991;entryDx=0;entryDy=0;startArrow=none;startFill=0;endArrow=classic;endFill=1;startSize=1;endSize=1;strokeColor=#000000;strokeWidth=2;entryPerimeter=0;" parent="1" source="550" target="561" edge="1">
                    <mxGeometry relative="1" as="geometry">
                        <Array as="points">
                            <mxPoint x="4725.57" y="311"/>
                            <mxPoint x="4725.57" y="273"/>
                            <mxPoint x="4746.57" y="273"/>
                        </Array>
                    </mxGeometry>
                </mxCell>
                <mxCell id="559" style="rounded=1;orthogonalLoop=1;jettySize=auto;html=1;exitX=0;exitY=0.5;exitDx=0;exitDy=0;entryX=0;entryY=0.5;entryDx=0;entryDy=0;fontSize=30;fontColor=#990000;startArrow=none;startFill=0;endArrow=classic;endFill=1;strokeWidth=2;edgeStyle=orthogonalEdgeStyle;" parent="1" source="545" target="550" edge="1">
                    <mxGeometry relative="1" as="geometry">
                        <Array as="points">
                            <mxPoint x="4645.57" y="273"/>
                            <mxPoint x="4645.57" y="311"/>
                            <mxPoint x="4675.57" y="311"/>
                        </Array>
                    </mxGeometry>
                </mxCell>
                <mxCell id="560" style="edgeStyle=orthogonalEdgeStyle;orthogonalLoop=1;jettySize=auto;html=1;entryX=0;entryY=0.25;entryDx=0;entryDy=0;fontSize=12;fontColor=#000000;strokeWidth=2;endSize=0;rounded=1;fillColor=#f8cecc;strokeColor=#b85450;" parent="1" source="561" target="555" edge="1">
                    <mxGeometry relative="1" as="geometry">
                        <Array as="points">
                            <mxPoint x="4775.57" y="285"/>
                            <mxPoint x="4775.57" y="264"/>
                        </Array>
                    </mxGeometry>
                </mxCell>
                <mxCell id="561" value="" style="shape=trapezoid;perimeter=trapezoidPerimeter;whiteSpace=wrap;html=1;fixedSize=1;fontSize=12;fontColor=#000000;strokeWidth=1;fillColor=#FFD966;rotation=90;size=7.5;" parent="1" vertex="1">
                    <mxGeometry x="4732.2" y="278.91999999999996" width="41.25" height="12.5" as="geometry"/>
                </mxCell>
                <mxCell id="562" value="" style="endArrow=none;html=1;rounded=1;fontSize=12;fontColor=#000000;startSize=0;endSize=0;strokeWidth=4;entryX=0.5;entryY=0;entryDx=0;entryDy=0;startArrow=none;startFill=0;endFill=0;" parent="1" target="545" edge="1">
                    <mxGeometry width="50" height="50" relative="1" as="geometry">
                        <mxPoint x="4712.57" y="96" as="sourcePoint"/>
                        <mxPoint x="4705.57" y="86" as="targetPoint"/>
                    </mxGeometry>
                </mxCell>
                <mxCell id="564" style="edgeStyle=orthogonalEdgeStyle;rounded=0;orthogonalLoop=1;jettySize=auto;html=1;fontSize=30;fontColor=#990000;startArrow=none;startFill=0;endArrow=none;endFill=0;strokeWidth=5;fillColor=#f8cecc;" parent="1" edge="1">
                    <mxGeometry relative="1" as="geometry">
                        <mxPoint x="4605.48" y="275.3199999999997" as="targetPoint"/>
                        <Array as="points">
                            <mxPoint x="4585.48" y="275.31999999999994"/>
                            <mxPoint x="4585.48" y="275.31999999999994"/>
                        </Array>
                        <mxPoint x="4540.57" y="275" as="sourcePoint"/>
                    </mxGeometry>
                </mxCell>
                <mxCell id="565" value="" style="ellipse;whiteSpace=wrap;html=1;aspect=fixed;fontSize=30;strokeColor=#000000;fillColor=#FFD966;opacity=80;" parent="1" vertex="1">
                    <mxGeometry x="4885.4" y="164" width="214.83" height="214.83" as="geometry"/>
                </mxCell>
                <mxCell id="566" value="" style="ellipse;whiteSpace=wrap;html=1;aspect=fixed;fillColor=#67AB9F;strokeWidth=4;strokeColor=#000000;" parent="1" vertex="1">
                    <mxGeometry x="4972.029999999999" y="205.90999999999997" width="40" height="40" as="geometry"/>
                </mxCell>
                <mxCell id="567" value="" style="endArrow=none;html=1;rounded=0;strokeColor=#000000;strokeWidth=4;exitX=0;exitY=0;exitDx=0;exitDy=0;entryX=1;entryY=1;entryDx=0;entryDy=0;" parent="1" source="566" target="566" edge="1">
                    <mxGeometry width="50" height="50" relative="1" as="geometry">
                        <mxPoint x="4987.8099999999995" y="237.65999999999997" as="sourcePoint"/>
                        <mxPoint x="5012.8099999999995" y="206.40999999999997" as="targetPoint"/>
                    </mxGeometry>
                </mxCell>
                <mxCell id="568" value="" style="endArrow=none;html=1;rounded=0;strokeColor=#000000;strokeWidth=4;exitX=0;exitY=1;exitDx=0;exitDy=0;entryX=1;entryY=0;entryDx=0;entryDy=0;" parent="1" source="566" target="566" edge="1">
                    <mxGeometry width="50" height="50" relative="1" as="geometry">
                        <mxPoint x="4943.667864376269" y="182.48233047033625" as="sourcePoint"/>
                        <mxPoint x="4972.121484117604" y="217.62341811969657" as="targetPoint"/>
                    </mxGeometry>
                </mxCell>
                <mxCell id="569" style="edgeStyle=orthogonalEdgeStyle;jumpStyle=none;jumpSize=6;orthogonalLoop=1;jettySize=auto;html=1;entryX=0;entryY=0.5;entryDx=0;entryDy=0;startArrow=none;startFill=0;endArrow=classic;endFill=1;startSize=1;endSize=1;strokeColor=#000000;strokeWidth=3;rounded=1;exitX=0.5;exitY=0;exitDx=0;exitDy=0;" parent="1" target="566" edge="1">
                    <mxGeometry relative="1" as="geometry">
                        <Array as="points">
                            <mxPoint x="4948.4" y="226"/>
                            <mxPoint x="4972.4" y="226"/>
                        </Array>
                        <mxPoint x="4948.109999999999" y="246.90999999999985" as="sourcePoint"/>
                    </mxGeometry>
                </mxCell>
                <mxCell id="570" value="" style="ellipse;whiteSpace=wrap;html=1;aspect=fixed;fillColor=#e1d5e7;strokeColor=#000000;strokeWidth=4;" parent="1" vertex="1">
                    <mxGeometry x="4955.4" y="289.4200000000001" width="40" height="40" as="geometry"/>
                </mxCell>
                <mxCell id="571" value="" style="endArrow=none;html=1;rounded=0;strokeColor=#000000;entryX=0.5;entryY=0;entryDx=0;entryDy=0;exitX=0.5;exitY=1;exitDx=0;exitDy=0;strokeWidth=4;" parent="1" source="570" target="570" edge="1">
                    <mxGeometry width="50" height="50" relative="1" as="geometry">
                        <mxPoint x="4982.8099999999995" y="252.40999999999997" as="sourcePoint"/>
                        <mxPoint x="5032.8099999999995" y="202.40999999999997" as="targetPoint"/>
                    </mxGeometry>
                </mxCell>
                <mxCell id="572" style="edgeStyle=orthogonalEdgeStyle;rounded=1;jumpStyle=none;jumpSize=6;orthogonalLoop=1;jettySize=auto;html=1;entryX=0.5;entryY=0;entryDx=0;entryDy=0;startArrow=none;startFill=0;endArrow=classic;endFill=1;startSize=1;endSize=1;strokeColor=#000000;strokeWidth=4;" parent="1" source="566" target="570" edge="1">
                    <mxGeometry relative="1" as="geometry"/>
                </mxCell>
                <mxCell id="573" value="" style="endArrow=none;html=1;rounded=0;strokeColor=#000000;entryX=0;entryY=0.5;entryDx=0;entryDy=0;exitX=1;exitY=0.5;exitDx=0;exitDy=0;strokeWidth=4;" parent="1" source="570" target="570" edge="1">
                    <mxGeometry width="50" height="50" relative="1" as="geometry">
                        <mxPoint x="5032.8099999999995" y="152.40999999999997" as="sourcePoint"/>
                        <mxPoint x="5032.8099999999995" y="92.40999999999997" as="targetPoint"/>
                    </mxGeometry>
                </mxCell>
                <mxCell id="574" style="edgeStyle=orthogonalEdgeStyle;rounded=1;orthogonalLoop=1;jettySize=auto;html=1;exitX=1;exitY=0.5;exitDx=0;exitDy=0;entryX=1;entryY=0.5;entryDx=0;entryDy=0;fontSize=30;fontColor=#990000;startArrow=none;startFill=0;endArrow=classic;endFill=1;strokeWidth=2;fillColor=#f8cecc;strokeColor=#b85450;" parent="1" source="575" target="565" edge="1">
                    <mxGeometry relative="1" as="geometry">
                        <Array as="points"/>
                    </mxGeometry>
                </mxCell>
                <mxCell id="575" value="" style="rounded=0;whiteSpace=wrap;html=1;glass=0;strokeColor=#000000;strokeWidth=4;fillColor=#FFD966;" parent="1" vertex="1">
                    <mxGeometry x="5065.4" y="253.42000000000007" width="20" height="36" as="geometry"/>
                </mxCell>
                <mxCell id="576" value="" style="endArrow=none;html=1;rounded=0;startSize=1;endSize=1;strokeColor=#000000;strokeWidth=4;jumpStyle=none;jumpSize=6;" parent="1" edge="1">
                    <mxGeometry width="50" height="50" relative="1" as="geometry">
                        <mxPoint x="5065.399999999998" y="287.4200000000001" as="sourcePoint"/>
                        <mxPoint x="5075.399999999998" y="276.9200000000001" as="targetPoint"/>
                    </mxGeometry>
                </mxCell>
                <mxCell id="577" value="" style="endArrow=none;html=1;rounded=0;startSize=1;endSize=1;strokeColor=#000000;strokeWidth=4;jumpStyle=none;jumpSize=6;" parent="1" edge="1">
                    <mxGeometry width="50" height="50" relative="1" as="geometry">
                        <mxPoint x="5075.399999999998" y="276.9200000000001" as="sourcePoint"/>
                        <mxPoint x="5085.399999999998" y="286.9200000000001" as="targetPoint"/>
                    </mxGeometry>
                </mxCell>
                <mxCell id="578" style="edgeStyle=orthogonalEdgeStyle;rounded=0;jumpStyle=none;jumpSize=6;orthogonalLoop=1;jettySize=auto;html=1;entryX=0.214;entryY=0.991;entryDx=0;entryDy=0;startArrow=none;startFill=0;endArrow=classic;endFill=1;startSize=1;endSize=1;strokeColor=#000000;strokeWidth=2;entryPerimeter=0;" parent="1" source="570" target="581" edge="1">
                    <mxGeometry relative="1" as="geometry">
                        <Array as="points">
                            <mxPoint x="5005.4" y="309"/>
                            <mxPoint x="5005.4" y="271"/>
                            <mxPoint x="5026.4" y="271"/>
                        </Array>
                    </mxGeometry>
                </mxCell>
                <mxCell id="579" style="rounded=1;orthogonalLoop=1;jettySize=auto;html=1;exitX=0;exitY=0.5;exitDx=0;exitDy=0;entryX=0;entryY=0.5;entryDx=0;entryDy=0;fontSize=30;fontColor=#990000;startArrow=none;startFill=0;endArrow=classic;endFill=1;strokeWidth=2;edgeStyle=orthogonalEdgeStyle;" parent="1" source="565" target="570" edge="1">
                    <mxGeometry relative="1" as="geometry">
                        <Array as="points">
                            <mxPoint x="4925.4" y="271"/>
                            <mxPoint x="4925.4" y="309"/>
                            <mxPoint x="4955.4" y="309"/>
                        </Array>
                    </mxGeometry>
                </mxCell>
                <mxCell id="580" style="edgeStyle=orthogonalEdgeStyle;orthogonalLoop=1;jettySize=auto;html=1;entryX=0;entryY=0.25;entryDx=0;entryDy=0;fontSize=12;fontColor=#000000;strokeWidth=2;endSize=0;rounded=1;fillColor=#f8cecc;strokeColor=#b85450;" parent="1" source="581" target="575" edge="1">
                    <mxGeometry relative="1" as="geometry">
                        <Array as="points">
                            <mxPoint x="5055.4" y="283"/>
                            <mxPoint x="5055.4" y="262"/>
                        </Array>
                    </mxGeometry>
                </mxCell>
                <mxCell id="581" value="" style="shape=trapezoid;perimeter=trapezoidPerimeter;whiteSpace=wrap;html=1;fixedSize=1;fontSize=12;fontColor=#000000;strokeWidth=1;fillColor=#FFD966;rotation=90;size=7.5;" parent="1" vertex="1">
                    <mxGeometry x="5012.03" y="276.91999999999996" width="41.25" height="12.5" as="geometry"/>
                </mxCell>
                <mxCell id="582" value="" style="endArrow=none;html=1;rounded=1;fontSize=12;fontColor=#000000;startSize=0;endSize=0;strokeWidth=4;entryX=0.5;entryY=0;entryDx=0;entryDy=0;startArrow=none;startFill=0;endFill=0;" parent="1" target="565" edge="1">
                    <mxGeometry width="50" height="50" relative="1" as="geometry">
                        <mxPoint x="4992.4" y="93.99999999999955" as="sourcePoint"/>
                        <mxPoint x="4985.4" y="84" as="targetPoint"/>
                    </mxGeometry>
                </mxCell>
                <mxCell id="584" style="edgeStyle=orthogonalEdgeStyle;rounded=0;orthogonalLoop=1;jettySize=auto;html=1;fontSize=30;fontColor=#990000;startArrow=none;startFill=0;endArrow=none;endFill=0;strokeWidth=5;fillColor=#f8cecc;" parent="1" edge="1">
                    <mxGeometry relative="1" as="geometry">
                        <mxPoint x="4885.3099999999995" y="273.3199999999997" as="targetPoint"/>
                        <Array as="points">
                            <mxPoint x="4865.3099999999995" y="273.31999999999994"/>
                            <mxPoint x="4865.3099999999995" y="273.31999999999994"/>
                        </Array>
                        <mxPoint x="4820.4" y="273" as="sourcePoint"/>
                    </mxGeometry>
                </mxCell>
                <mxCell id="585" value="" style="ellipse;whiteSpace=wrap;html=1;aspect=fixed;fontSize=30;strokeColor=#000000;fillColor=#FFD966;opacity=80;" parent="1" vertex="1">
                    <mxGeometry x="4325.74" y="458" width="214.83" height="214.83" as="geometry"/>
                </mxCell>
                <mxCell id="586" value="" style="ellipse;whiteSpace=wrap;html=1;aspect=fixed;fillColor=#67AB9F;strokeWidth=4;strokeColor=#000000;" parent="1" vertex="1">
                    <mxGeometry x="4412.369999999999" y="499.90999999999997" width="40" height="40" as="geometry"/>
                </mxCell>
                <mxCell id="587" value="" style="endArrow=none;html=1;rounded=0;strokeColor=#000000;strokeWidth=4;exitX=0;exitY=0;exitDx=0;exitDy=0;entryX=1;entryY=1;entryDx=0;entryDy=0;" parent="1" source="586" target="586" edge="1">
                    <mxGeometry width="50" height="50" relative="1" as="geometry">
                        <mxPoint x="4428.15" y="531.66" as="sourcePoint"/>
                        <mxPoint x="4453.15" y="500.40999999999997" as="targetPoint"/>
                    </mxGeometry>
                </mxCell>
                <mxCell id="588" value="" style="endArrow=none;html=1;rounded=0;strokeColor=#000000;strokeWidth=4;exitX=0;exitY=1;exitDx=0;exitDy=0;entryX=1;entryY=0;entryDx=0;entryDy=0;" parent="1" source="586" target="586" edge="1">
                    <mxGeometry width="50" height="50" relative="1" as="geometry">
                        <mxPoint x="4384.007864376269" y="476.48233047033625" as="sourcePoint"/>
                        <mxPoint x="4412.461484117604" y="511.62341811969657" as="targetPoint"/>
                    </mxGeometry>
                </mxCell>
                <mxCell id="589" style="edgeStyle=orthogonalEdgeStyle;jumpStyle=none;jumpSize=6;orthogonalLoop=1;jettySize=auto;html=1;entryX=0;entryY=0.5;entryDx=0;entryDy=0;startArrow=none;startFill=0;endArrow=classic;endFill=1;startSize=1;endSize=1;strokeColor=#000000;strokeWidth=3;rounded=1;exitX=0.5;exitY=0;exitDx=0;exitDy=0;" parent="1" target="586" edge="1">
                    <mxGeometry relative="1" as="geometry">
                        <Array as="points">
                            <mxPoint x="4388.74" y="520"/>
                            <mxPoint x="4412.74" y="520"/>
                        </Array>
                        <mxPoint x="4388.449999999999" y="540.9099999999999" as="sourcePoint"/>
                    </mxGeometry>
                </mxCell>
                <mxCell id="590" value="" style="ellipse;whiteSpace=wrap;html=1;aspect=fixed;fillColor=#e1d5e7;strokeColor=#000000;strokeWidth=4;" parent="1" vertex="1">
                    <mxGeometry x="4395.74" y="583.4200000000001" width="40" height="40" as="geometry"/>
                </mxCell>
                <mxCell id="591" value="" style="endArrow=none;html=1;rounded=0;strokeColor=#000000;entryX=0.5;entryY=0;entryDx=0;entryDy=0;exitX=0.5;exitY=1;exitDx=0;exitDy=0;strokeWidth=4;" parent="1" source="590" target="590" edge="1">
                    <mxGeometry width="50" height="50" relative="1" as="geometry">
                        <mxPoint x="4423.15" y="546.41" as="sourcePoint"/>
                        <mxPoint x="4473.15" y="496.40999999999997" as="targetPoint"/>
                    </mxGeometry>
                </mxCell>
                <mxCell id="592" style="edgeStyle=orthogonalEdgeStyle;rounded=1;jumpStyle=none;jumpSize=6;orthogonalLoop=1;jettySize=auto;html=1;entryX=0.5;entryY=0;entryDx=0;entryDy=0;startArrow=none;startFill=0;endArrow=classic;endFill=1;startSize=1;endSize=1;strokeColor=#000000;strokeWidth=4;" parent="1" source="586" target="590" edge="1">
                    <mxGeometry relative="1" as="geometry"/>
                </mxCell>
                <mxCell id="593" value="" style="endArrow=none;html=1;rounded=0;strokeColor=#000000;entryX=0;entryY=0.5;entryDx=0;entryDy=0;exitX=1;exitY=0.5;exitDx=0;exitDy=0;strokeWidth=4;" parent="1" source="590" target="590" edge="1">
                    <mxGeometry width="50" height="50" relative="1" as="geometry">
                        <mxPoint x="4473.15" y="446.40999999999997" as="sourcePoint"/>
                        <mxPoint x="4473.15" y="386.40999999999997" as="targetPoint"/>
                    </mxGeometry>
                </mxCell>
                <mxCell id="594" style="edgeStyle=orthogonalEdgeStyle;rounded=1;orthogonalLoop=1;jettySize=auto;html=1;exitX=1;exitY=0.5;exitDx=0;exitDy=0;entryX=1;entryY=0.5;entryDx=0;entryDy=0;fontSize=30;fontColor=#990000;startArrow=none;startFill=0;endArrow=classic;endFill=1;strokeWidth=2;fillColor=#f8cecc;strokeColor=#b85450;" parent="1" source="595" target="585" edge="1">
                    <mxGeometry relative="1" as="geometry">
                        <Array as="points"/>
                    </mxGeometry>
                </mxCell>
                <mxCell id="595" value="" style="rounded=0;whiteSpace=wrap;html=1;glass=0;strokeColor=#000000;strokeWidth=4;fillColor=#FFD966;" parent="1" vertex="1">
                    <mxGeometry x="4505.74" y="547.4200000000001" width="20" height="36" as="geometry"/>
                </mxCell>
                <mxCell id="596" value="" style="endArrow=none;html=1;rounded=0;startSize=1;endSize=1;strokeColor=#000000;strokeWidth=4;jumpStyle=none;jumpSize=6;" parent="1" edge="1">
                    <mxGeometry width="50" height="50" relative="1" as="geometry">
                        <mxPoint x="4505.739999999998" y="581.4200000000001" as="sourcePoint"/>
                        <mxPoint x="4515.739999999998" y="570.9200000000001" as="targetPoint"/>
                    </mxGeometry>
                </mxCell>
                <mxCell id="597" value="" style="endArrow=none;html=1;rounded=0;startSize=1;endSize=1;strokeColor=#000000;strokeWidth=4;jumpStyle=none;jumpSize=6;" parent="1" edge="1">
                    <mxGeometry width="50" height="50" relative="1" as="geometry">
                        <mxPoint x="4515.739999999998" y="570.9200000000001" as="sourcePoint"/>
                        <mxPoint x="4525.739999999998" y="580.9200000000001" as="targetPoint"/>
                    </mxGeometry>
                </mxCell>
                <mxCell id="598" style="edgeStyle=orthogonalEdgeStyle;rounded=0;jumpStyle=none;jumpSize=6;orthogonalLoop=1;jettySize=auto;html=1;entryX=0.214;entryY=0.991;entryDx=0;entryDy=0;startArrow=none;startFill=0;endArrow=classic;endFill=1;startSize=1;endSize=1;strokeColor=#000000;strokeWidth=2;entryPerimeter=0;" parent="1" source="590" target="601" edge="1">
                    <mxGeometry relative="1" as="geometry">
                        <Array as="points">
                            <mxPoint x="4445.74" y="603"/>
                            <mxPoint x="4445.74" y="565"/>
                            <mxPoint x="4466.74" y="565"/>
                        </Array>
                    </mxGeometry>
                </mxCell>
                <mxCell id="599" style="rounded=1;orthogonalLoop=1;jettySize=auto;html=1;exitX=0;exitY=0.5;exitDx=0;exitDy=0;entryX=0;entryY=0.5;entryDx=0;entryDy=0;fontSize=30;fontColor=#990000;startArrow=none;startFill=0;endArrow=classic;endFill=1;strokeWidth=2;edgeStyle=orthogonalEdgeStyle;" parent="1" source="585" target="590" edge="1">
                    <mxGeometry relative="1" as="geometry">
                        <Array as="points">
                            <mxPoint x="4365.74" y="565"/>
                            <mxPoint x="4365.74" y="603"/>
                            <mxPoint x="4395.74" y="603"/>
                        </Array>
                    </mxGeometry>
                </mxCell>
                <mxCell id="600" style="edgeStyle=orthogonalEdgeStyle;orthogonalLoop=1;jettySize=auto;html=1;entryX=0;entryY=0.25;entryDx=0;entryDy=0;fontSize=12;fontColor=#000000;strokeWidth=2;endSize=0;rounded=1;fillColor=#f8cecc;strokeColor=#b85450;" parent="1" source="601" target="595" edge="1">
                    <mxGeometry relative="1" as="geometry">
                        <Array as="points">
                            <mxPoint x="4495.74" y="577"/>
                            <mxPoint x="4495.74" y="556"/>
                        </Array>
                    </mxGeometry>
                </mxCell>
                <mxCell id="601" value="" style="shape=trapezoid;perimeter=trapezoidPerimeter;whiteSpace=wrap;html=1;fixedSize=1;fontSize=12;fontColor=#000000;strokeWidth=1;fillColor=#FFD966;rotation=90;size=7.5;" parent="1" vertex="1">
                    <mxGeometry x="4452.37" y="570.92" width="41.25" height="12.5" as="geometry"/>
                </mxCell>
                <mxCell id="602" value="" style="endArrow=none;html=1;rounded=1;fontSize=12;fontColor=#000000;startSize=0;endSize=0;strokeWidth=4;entryX=0.5;entryY=0;entryDx=0;entryDy=0;startArrow=none;startFill=0;endFill=0;exitX=0.5;exitY=1;exitDx=0;exitDy=0;" parent="1" source="525" target="585" edge="1">
                    <mxGeometry width="50" height="50" relative="1" as="geometry">
                        <mxPoint x="4432.74" y="388" as="sourcePoint"/>
                        <mxPoint x="4425.74" y="378" as="targetPoint"/>
                    </mxGeometry>
                </mxCell>
                <mxCell id="604" style="edgeStyle=orthogonalEdgeStyle;rounded=0;orthogonalLoop=1;jettySize=auto;html=1;fontSize=30;fontColor=#990000;startArrow=none;startFill=0;endArrow=none;endFill=0;strokeWidth=5;fillColor=#f8cecc;" parent="1" edge="1">
                    <mxGeometry relative="1" as="geometry">
                        <mxPoint x="4325.65" y="565.3199999999997" as="targetPoint"/>
                        <Array as="points">
                            <mxPoint x="4305.65" y="565.3199999999999"/>
                            <mxPoint x="4305.65" y="565.3199999999999"/>
                        </Array>
                        <mxPoint x="4260.74" y="565" as="sourcePoint"/>
                    </mxGeometry>
                </mxCell>
                <mxCell id="605" value="" style="ellipse;whiteSpace=wrap;html=1;aspect=fixed;fontSize=30;strokeColor=#000000;fillColor=#FFD966;opacity=80;" parent="1" vertex="1">
                    <mxGeometry x="4605.57" y="456" width="214.83" height="214.83" as="geometry"/>
                </mxCell>
                <mxCell id="606" value="" style="ellipse;whiteSpace=wrap;html=1;aspect=fixed;fillColor=#67AB9F;strokeWidth=4;strokeColor=#000000;" parent="1" vertex="1">
                    <mxGeometry x="4692.199999999999" y="497.90999999999997" width="40" height="40" as="geometry"/>
                </mxCell>
                <mxCell id="607" value="" style="endArrow=none;html=1;rounded=0;strokeColor=#000000;strokeWidth=4;exitX=0;exitY=0;exitDx=0;exitDy=0;entryX=1;entryY=1;entryDx=0;entryDy=0;" parent="1" source="606" target="606" edge="1">
                    <mxGeometry width="50" height="50" relative="1" as="geometry">
                        <mxPoint x="4707.98" y="529.66" as="sourcePoint"/>
                        <mxPoint x="4732.98" y="498.40999999999997" as="targetPoint"/>
                    </mxGeometry>
                </mxCell>
                <mxCell id="608" value="" style="endArrow=none;html=1;rounded=0;strokeColor=#000000;strokeWidth=4;exitX=0;exitY=1;exitDx=0;exitDy=0;entryX=1;entryY=0;entryDx=0;entryDy=0;" parent="1" source="606" target="606" edge="1">
                    <mxGeometry width="50" height="50" relative="1" as="geometry">
                        <mxPoint x="4663.837864376269" y="474.48233047033625" as="sourcePoint"/>
                        <mxPoint x="4692.291484117604" y="509.62341811969657" as="targetPoint"/>
                    </mxGeometry>
                </mxCell>
                <mxCell id="609" style="edgeStyle=orthogonalEdgeStyle;jumpStyle=none;jumpSize=6;orthogonalLoop=1;jettySize=auto;html=1;entryX=0;entryY=0.5;entryDx=0;entryDy=0;startArrow=none;startFill=0;endArrow=classic;endFill=1;startSize=1;endSize=1;strokeColor=#000000;strokeWidth=3;rounded=1;exitX=0.5;exitY=0;exitDx=0;exitDy=0;" parent="1" target="606" edge="1">
                    <mxGeometry relative="1" as="geometry">
                        <Array as="points">
                            <mxPoint x="4668.57" y="518"/>
                            <mxPoint x="4692.57" y="518"/>
                        </Array>
                        <mxPoint x="4668.279999999999" y="538.9099999999999" as="sourcePoint"/>
                    </mxGeometry>
                </mxCell>
                <mxCell id="610" value="" style="ellipse;whiteSpace=wrap;html=1;aspect=fixed;fillColor=#e1d5e7;strokeColor=#000000;strokeWidth=4;" parent="1" vertex="1">
                    <mxGeometry x="4675.57" y="581.4200000000001" width="40" height="40" as="geometry"/>
                </mxCell>
                <mxCell id="611" value="" style="endArrow=none;html=1;rounded=0;strokeColor=#000000;entryX=0.5;entryY=0;entryDx=0;entryDy=0;exitX=0.5;exitY=1;exitDx=0;exitDy=0;strokeWidth=4;" parent="1" source="610" target="610" edge="1">
                    <mxGeometry width="50" height="50" relative="1" as="geometry">
                        <mxPoint x="4702.98" y="544.41" as="sourcePoint"/>
                        <mxPoint x="4752.98" y="494.40999999999997" as="targetPoint"/>
                    </mxGeometry>
                </mxCell>
                <mxCell id="612" style="edgeStyle=orthogonalEdgeStyle;rounded=1;jumpStyle=none;jumpSize=6;orthogonalLoop=1;jettySize=auto;html=1;entryX=0.5;entryY=0;entryDx=0;entryDy=0;startArrow=none;startFill=0;endArrow=classic;endFill=1;startSize=1;endSize=1;strokeColor=#000000;strokeWidth=4;" parent="1" source="606" target="610" edge="1">
                    <mxGeometry relative="1" as="geometry"/>
                </mxCell>
                <mxCell id="613" value="" style="endArrow=none;html=1;rounded=0;strokeColor=#000000;entryX=0;entryY=0.5;entryDx=0;entryDy=0;exitX=1;exitY=0.5;exitDx=0;exitDy=0;strokeWidth=4;" parent="1" source="610" target="610" edge="1">
                    <mxGeometry width="50" height="50" relative="1" as="geometry">
                        <mxPoint x="4752.98" y="444.40999999999997" as="sourcePoint"/>
                        <mxPoint x="4752.98" y="384.40999999999997" as="targetPoint"/>
                    </mxGeometry>
                </mxCell>
                <mxCell id="614" style="edgeStyle=orthogonalEdgeStyle;rounded=1;orthogonalLoop=1;jettySize=auto;html=1;exitX=1;exitY=0.5;exitDx=0;exitDy=0;entryX=1;entryY=0.5;entryDx=0;entryDy=0;fontSize=30;fontColor=#990000;startArrow=none;startFill=0;endArrow=classic;endFill=1;strokeWidth=2;fillColor=#f8cecc;strokeColor=#b85450;" parent="1" source="615" target="605" edge="1">
                    <mxGeometry relative="1" as="geometry">
                        <Array as="points"/>
                    </mxGeometry>
                </mxCell>
                <mxCell id="615" value="" style="rounded=0;whiteSpace=wrap;html=1;glass=0;strokeColor=#000000;strokeWidth=4;fillColor=#FFD966;" parent="1" vertex="1">
                    <mxGeometry x="4785.57" y="545.4200000000001" width="20" height="36" as="geometry"/>
                </mxCell>
                <mxCell id="616" value="" style="endArrow=none;html=1;rounded=0;startSize=1;endSize=1;strokeColor=#000000;strokeWidth=4;jumpStyle=none;jumpSize=6;" parent="1" edge="1">
                    <mxGeometry width="50" height="50" relative="1" as="geometry">
                        <mxPoint x="4785.569999999998" y="579.4200000000001" as="sourcePoint"/>
                        <mxPoint x="4795.569999999998" y="568.9200000000001" as="targetPoint"/>
                    </mxGeometry>
                </mxCell>
                <mxCell id="617" value="" style="endArrow=none;html=1;rounded=0;startSize=1;endSize=1;strokeColor=#000000;strokeWidth=4;jumpStyle=none;jumpSize=6;" parent="1" edge="1">
                    <mxGeometry width="50" height="50" relative="1" as="geometry">
                        <mxPoint x="4795.569999999998" y="568.9200000000001" as="sourcePoint"/>
                        <mxPoint x="4805.569999999998" y="578.9200000000001" as="targetPoint"/>
                    </mxGeometry>
                </mxCell>
                <mxCell id="618" style="edgeStyle=orthogonalEdgeStyle;rounded=0;jumpStyle=none;jumpSize=6;orthogonalLoop=1;jettySize=auto;html=1;entryX=0.214;entryY=0.991;entryDx=0;entryDy=0;startArrow=none;startFill=0;endArrow=classic;endFill=1;startSize=1;endSize=1;strokeColor=#000000;strokeWidth=2;entryPerimeter=0;" parent="1" source="610" target="621" edge="1">
                    <mxGeometry relative="1" as="geometry">
                        <Array as="points">
                            <mxPoint x="4725.57" y="601"/>
                            <mxPoint x="4725.57" y="563"/>
                            <mxPoint x="4746.57" y="563"/>
                        </Array>
                    </mxGeometry>
                </mxCell>
                <mxCell id="619" style="rounded=1;orthogonalLoop=1;jettySize=auto;html=1;exitX=0;exitY=0.5;exitDx=0;exitDy=0;entryX=0;entryY=0.5;entryDx=0;entryDy=0;fontSize=30;fontColor=#990000;startArrow=none;startFill=0;endArrow=classic;endFill=1;strokeWidth=2;edgeStyle=orthogonalEdgeStyle;" parent="1" source="605" target="610" edge="1">
                    <mxGeometry relative="1" as="geometry">
                        <Array as="points">
                            <mxPoint x="4645.57" y="563"/>
                            <mxPoint x="4645.57" y="601"/>
                            <mxPoint x="4675.57" y="601"/>
                        </Array>
                    </mxGeometry>
                </mxCell>
                <mxCell id="620" style="edgeStyle=orthogonalEdgeStyle;orthogonalLoop=1;jettySize=auto;html=1;entryX=0;entryY=0.25;entryDx=0;entryDy=0;fontSize=12;fontColor=#000000;strokeWidth=2;endSize=0;rounded=1;fillColor=#f8cecc;strokeColor=#b85450;" parent="1" source="621" target="615" edge="1">
                    <mxGeometry relative="1" as="geometry">
                        <Array as="points">
                            <mxPoint x="4775.57" y="575"/>
                            <mxPoint x="4775.57" y="554"/>
                        </Array>
                    </mxGeometry>
                </mxCell>
                <mxCell id="621" value="" style="shape=trapezoid;perimeter=trapezoidPerimeter;whiteSpace=wrap;html=1;fixedSize=1;fontSize=12;fontColor=#000000;strokeWidth=1;fillColor=#FFD966;rotation=90;size=7.5;" parent="1" vertex="1">
                    <mxGeometry x="4732.2" y="568.92" width="41.25" height="12.5" as="geometry"/>
                </mxCell>
                <mxCell id="623" style="edgeStyle=orthogonalEdgeStyle;rounded=0;orthogonalLoop=1;jettySize=auto;html=1;fontSize=30;fontColor=#990000;startArrow=none;startFill=0;endArrow=none;endFill=0;strokeWidth=5;fillColor=#f8cecc;" parent="1" edge="1">
                    <mxGeometry relative="1" as="geometry">
                        <mxPoint x="4605.48" y="565.3199999999997" as="targetPoint"/>
                        <Array as="points">
                            <mxPoint x="4585.48" y="565.3199999999999"/>
                            <mxPoint x="4585.48" y="565.3199999999999"/>
                        </Array>
                        <mxPoint x="4540.57" y="565" as="sourcePoint"/>
                    </mxGeometry>
                </mxCell>
                <mxCell id="624" value="" style="ellipse;whiteSpace=wrap;html=1;aspect=fixed;fontSize=30;strokeColor=#000000;fillColor=#FFD966;opacity=80;" parent="1" vertex="1">
                    <mxGeometry x="4885.4" y="454" width="214.83" height="214.83" as="geometry"/>
                </mxCell>
                <mxCell id="625" value="" style="ellipse;whiteSpace=wrap;html=1;aspect=fixed;fillColor=#67AB9F;strokeWidth=4;strokeColor=#000000;" parent="1" vertex="1">
                    <mxGeometry x="4972.029999999999" y="495.90999999999997" width="40" height="40" as="geometry"/>
                </mxCell>
                <mxCell id="626" value="" style="endArrow=none;html=1;rounded=0;strokeColor=#000000;strokeWidth=4;exitX=0;exitY=0;exitDx=0;exitDy=0;entryX=1;entryY=1;entryDx=0;entryDy=0;" parent="1" source="625" target="625" edge="1">
                    <mxGeometry width="50" height="50" relative="1" as="geometry">
                        <mxPoint x="4987.8099999999995" y="527.66" as="sourcePoint"/>
                        <mxPoint x="5012.8099999999995" y="496.40999999999997" as="targetPoint"/>
                    </mxGeometry>
                </mxCell>
                <mxCell id="627" value="" style="endArrow=none;html=1;rounded=0;strokeColor=#000000;strokeWidth=4;exitX=0;exitY=1;exitDx=0;exitDy=0;entryX=1;entryY=0;entryDx=0;entryDy=0;" parent="1" source="625" target="625" edge="1">
                    <mxGeometry width="50" height="50" relative="1" as="geometry">
                        <mxPoint x="4943.667864376269" y="472.48233047033625" as="sourcePoint"/>
                        <mxPoint x="4972.121484117604" y="507.62341811969657" as="targetPoint"/>
                    </mxGeometry>
                </mxCell>
                <mxCell id="628" style="edgeStyle=orthogonalEdgeStyle;jumpStyle=none;jumpSize=6;orthogonalLoop=1;jettySize=auto;html=1;entryX=0;entryY=0.5;entryDx=0;entryDy=0;startArrow=none;startFill=0;endArrow=classic;endFill=1;startSize=1;endSize=1;strokeColor=#000000;strokeWidth=3;rounded=1;exitX=0.5;exitY=0;exitDx=0;exitDy=0;" parent="1" target="625" edge="1">
                    <mxGeometry relative="1" as="geometry">
                        <Array as="points">
                            <mxPoint x="4948.4" y="516"/>
                            <mxPoint x="4972.4" y="516"/>
                        </Array>
                        <mxPoint x="4948.109999999999" y="536.9099999999999" as="sourcePoint"/>
                    </mxGeometry>
                </mxCell>
                <mxCell id="629" value="" style="ellipse;whiteSpace=wrap;html=1;aspect=fixed;fillColor=#e1d5e7;strokeColor=#000000;strokeWidth=4;" parent="1" vertex="1">
                    <mxGeometry x="4955.4" y="579.4200000000001" width="40" height="40" as="geometry"/>
                </mxCell>
                <mxCell id="630" value="" style="endArrow=none;html=1;rounded=0;strokeColor=#000000;entryX=0.5;entryY=0;entryDx=0;entryDy=0;exitX=0.5;exitY=1;exitDx=0;exitDy=0;strokeWidth=4;" parent="1" source="629" target="629" edge="1">
                    <mxGeometry width="50" height="50" relative="1" as="geometry">
                        <mxPoint x="4982.8099999999995" y="542.41" as="sourcePoint"/>
                        <mxPoint x="5032.8099999999995" y="492.40999999999997" as="targetPoint"/>
                    </mxGeometry>
                </mxCell>
                <mxCell id="631" style="edgeStyle=orthogonalEdgeStyle;rounded=1;jumpStyle=none;jumpSize=6;orthogonalLoop=1;jettySize=auto;html=1;entryX=0.5;entryY=0;entryDx=0;entryDy=0;startArrow=none;startFill=0;endArrow=classic;endFill=1;startSize=1;endSize=1;strokeColor=#000000;strokeWidth=4;" parent="1" source="625" target="629" edge="1">
                    <mxGeometry relative="1" as="geometry"/>
                </mxCell>
                <mxCell id="632" value="" style="endArrow=none;html=1;rounded=0;strokeColor=#000000;entryX=0;entryY=0.5;entryDx=0;entryDy=0;exitX=1;exitY=0.5;exitDx=0;exitDy=0;strokeWidth=4;" parent="1" source="629" target="629" edge="1">
                    <mxGeometry width="50" height="50" relative="1" as="geometry">
                        <mxPoint x="5032.8099999999995" y="442.40999999999997" as="sourcePoint"/>
                        <mxPoint x="5032.8099999999995" y="382.40999999999997" as="targetPoint"/>
                    </mxGeometry>
                </mxCell>
                <mxCell id="633" style="edgeStyle=orthogonalEdgeStyle;rounded=1;orthogonalLoop=1;jettySize=auto;html=1;exitX=1;exitY=0.5;exitDx=0;exitDy=0;entryX=1;entryY=0.5;entryDx=0;entryDy=0;fontSize=30;fontColor=#990000;startArrow=none;startFill=0;endArrow=classic;endFill=1;strokeWidth=2;fillColor=#f8cecc;strokeColor=#b85450;" parent="1" source="634" target="624" edge="1">
                    <mxGeometry relative="1" as="geometry">
                        <Array as="points"/>
                    </mxGeometry>
                </mxCell>
                <mxCell id="634" value="" style="rounded=0;whiteSpace=wrap;html=1;glass=0;strokeColor=#000000;strokeWidth=4;fillColor=#FFD966;" parent="1" vertex="1">
                    <mxGeometry x="5065.4" y="543.4200000000001" width="20" height="36" as="geometry"/>
                </mxCell>
                <mxCell id="635" value="" style="endArrow=none;html=1;rounded=0;startSize=1;endSize=1;strokeColor=#000000;strokeWidth=4;jumpStyle=none;jumpSize=6;" parent="1" edge="1">
                    <mxGeometry width="50" height="50" relative="1" as="geometry">
                        <mxPoint x="5065.399999999998" y="577.4200000000001" as="sourcePoint"/>
                        <mxPoint x="5075.399999999998" y="566.9200000000001" as="targetPoint"/>
                    </mxGeometry>
                </mxCell>
                <mxCell id="636" value="" style="endArrow=none;html=1;rounded=0;startSize=1;endSize=1;strokeColor=#000000;strokeWidth=4;jumpStyle=none;jumpSize=6;" parent="1" edge="1">
                    <mxGeometry width="50" height="50" relative="1" as="geometry">
                        <mxPoint x="5075.399999999998" y="566.9200000000001" as="sourcePoint"/>
                        <mxPoint x="5085.399999999998" y="576.9200000000001" as="targetPoint"/>
                    </mxGeometry>
                </mxCell>
                <mxCell id="637" style="edgeStyle=orthogonalEdgeStyle;rounded=0;jumpStyle=none;jumpSize=6;orthogonalLoop=1;jettySize=auto;html=1;entryX=0.214;entryY=0.991;entryDx=0;entryDy=0;startArrow=none;startFill=0;endArrow=classic;endFill=1;startSize=1;endSize=1;strokeColor=#000000;strokeWidth=2;entryPerimeter=0;" parent="1" source="629" target="640" edge="1">
                    <mxGeometry relative="1" as="geometry">
                        <Array as="points">
                            <mxPoint x="5005.4" y="599"/>
                            <mxPoint x="5005.4" y="561"/>
                            <mxPoint x="5026.4" y="561"/>
                        </Array>
                    </mxGeometry>
                </mxCell>
                <mxCell id="638" style="rounded=1;orthogonalLoop=1;jettySize=auto;html=1;exitX=0;exitY=0.5;exitDx=0;exitDy=0;entryX=0;entryY=0.5;entryDx=0;entryDy=0;fontSize=30;fontColor=#990000;startArrow=none;startFill=0;endArrow=classic;endFill=1;strokeWidth=2;edgeStyle=orthogonalEdgeStyle;" parent="1" source="624" target="629" edge="1">
                    <mxGeometry relative="1" as="geometry">
                        <Array as="points">
                            <mxPoint x="4925.4" y="561"/>
                            <mxPoint x="4925.4" y="599"/>
                            <mxPoint x="4955.4" y="599"/>
                        </Array>
                    </mxGeometry>
                </mxCell>
                <mxCell id="639" style="edgeStyle=orthogonalEdgeStyle;orthogonalLoop=1;jettySize=auto;html=1;entryX=0;entryY=0.25;entryDx=0;entryDy=0;fontSize=12;fontColor=#000000;strokeWidth=2;endSize=0;rounded=1;fillColor=#f8cecc;strokeColor=#b85450;" parent="1" source="640" target="634" edge="1">
                    <mxGeometry relative="1" as="geometry">
                        <Array as="points">
                            <mxPoint x="5055.4" y="573"/>
                            <mxPoint x="5055.4" y="552"/>
                        </Array>
                    </mxGeometry>
                </mxCell>
                <mxCell id="640" value="" style="shape=trapezoid;perimeter=trapezoidPerimeter;whiteSpace=wrap;html=1;fixedSize=1;fontSize=12;fontColor=#000000;strokeWidth=1;fillColor=#FFD966;rotation=90;size=7.5;" parent="1" vertex="1">
                    <mxGeometry x="5012.03" y="566.92" width="41.25" height="12.5" as="geometry"/>
                </mxCell>
                <mxCell id="642" style="edgeStyle=orthogonalEdgeStyle;rounded=0;orthogonalLoop=1;jettySize=auto;html=1;fontSize=30;fontColor=#990000;startArrow=none;startFill=0;endArrow=none;endFill=0;strokeWidth=5;fillColor=#f8cecc;" parent="1" edge="1">
                    <mxGeometry relative="1" as="geometry">
                        <mxPoint x="4885.3099999999995" y="563.3199999999997" as="targetPoint"/>
                        <Array as="points">
                            <mxPoint x="4865.3099999999995" y="563.3199999999999"/>
                            <mxPoint x="4865.3099999999995" y="563.3199999999999"/>
                        </Array>
                        <mxPoint x="4820.4" y="563" as="sourcePoint"/>
                    </mxGeometry>
                </mxCell>
                <mxCell id="643" value="" style="ellipse;whiteSpace=wrap;html=1;aspect=fixed;fontSize=30;strokeColor=#000000;fillColor=#FFD966;opacity=80;" parent="1" vertex="1">
                    <mxGeometry x="4325" y="742.83" width="214.83" height="214.83" as="geometry"/>
                </mxCell>
                <mxCell id="644" value="" style="ellipse;whiteSpace=wrap;html=1;aspect=fixed;fillColor=#67AB9F;strokeWidth=4;strokeColor=#000000;" parent="1" vertex="1">
                    <mxGeometry x="4411.629999999999" y="784.74" width="40" height="40" as="geometry"/>
                </mxCell>
                <mxCell id="645" value="" style="endArrow=none;html=1;rounded=0;strokeColor=#000000;strokeWidth=4;exitX=0;exitY=0;exitDx=0;exitDy=0;entryX=1;entryY=1;entryDx=0;entryDy=0;" parent="1" source="644" target="644" edge="1">
                    <mxGeometry width="50" height="50" relative="1" as="geometry">
                        <mxPoint x="4427.41" y="816.49" as="sourcePoint"/>
                        <mxPoint x="4452.41" y="785.24" as="targetPoint"/>
                    </mxGeometry>
                </mxCell>
                <mxCell id="646" value="" style="endArrow=none;html=1;rounded=0;strokeColor=#000000;strokeWidth=4;exitX=0;exitY=1;exitDx=0;exitDy=0;entryX=1;entryY=0;entryDx=0;entryDy=0;" parent="1" source="644" target="644" edge="1">
                    <mxGeometry width="50" height="50" relative="1" as="geometry">
                        <mxPoint x="4383.267864376269" y="761.3123304703363" as="sourcePoint"/>
                        <mxPoint x="4411.721484117605" y="796.4534181196966" as="targetPoint"/>
                    </mxGeometry>
                </mxCell>
                <mxCell id="647" style="edgeStyle=orthogonalEdgeStyle;jumpStyle=none;jumpSize=6;orthogonalLoop=1;jettySize=auto;html=1;entryX=0;entryY=0.5;entryDx=0;entryDy=0;startArrow=none;startFill=0;endArrow=classic;endFill=1;startSize=1;endSize=1;strokeColor=#000000;strokeWidth=3;rounded=1;exitX=0.5;exitY=0;exitDx=0;exitDy=0;" parent="1" target="644" edge="1">
                    <mxGeometry relative="1" as="geometry">
                        <Array as="points">
                            <mxPoint x="4388" y="804.83"/>
                            <mxPoint x="4412" y="804.83"/>
                        </Array>
                        <mxPoint x="4387.709999999999" y="825.7399999999998" as="sourcePoint"/>
                    </mxGeometry>
                </mxCell>
                <mxCell id="648" value="" style="ellipse;whiteSpace=wrap;html=1;aspect=fixed;fillColor=#e1d5e7;strokeColor=#000000;strokeWidth=4;" parent="1" vertex="1">
                    <mxGeometry x="4395" y="868.2500000000001" width="40" height="40" as="geometry"/>
                </mxCell>
                <mxCell id="649" value="" style="endArrow=none;html=1;rounded=0;strokeColor=#000000;entryX=0.5;entryY=0;entryDx=0;entryDy=0;exitX=0.5;exitY=1;exitDx=0;exitDy=0;strokeWidth=4;" parent="1" source="648" target="648" edge="1">
                    <mxGeometry width="50" height="50" relative="1" as="geometry">
                        <mxPoint x="4422.41" y="831.24" as="sourcePoint"/>
                        <mxPoint x="4472.41" y="781.24" as="targetPoint"/>
                    </mxGeometry>
                </mxCell>
                <mxCell id="650" style="edgeStyle=orthogonalEdgeStyle;rounded=1;jumpStyle=none;jumpSize=6;orthogonalLoop=1;jettySize=auto;html=1;entryX=0.5;entryY=0;entryDx=0;entryDy=0;startArrow=none;startFill=0;endArrow=classic;endFill=1;startSize=1;endSize=1;strokeColor=#000000;strokeWidth=4;" parent="1" source="644" target="648" edge="1">
                    <mxGeometry relative="1" as="geometry"/>
                </mxCell>
                <mxCell id="651" value="" style="endArrow=none;html=1;rounded=0;strokeColor=#000000;entryX=0;entryY=0.5;entryDx=0;entryDy=0;exitX=1;exitY=0.5;exitDx=0;exitDy=0;strokeWidth=4;" parent="1" source="648" target="648" edge="1">
                    <mxGeometry width="50" height="50" relative="1" as="geometry">
                        <mxPoint x="4472.41" y="731.24" as="sourcePoint"/>
                        <mxPoint x="4472.41" y="671.24" as="targetPoint"/>
                    </mxGeometry>
                </mxCell>
                <mxCell id="652" style="edgeStyle=orthogonalEdgeStyle;rounded=1;orthogonalLoop=1;jettySize=auto;html=1;exitX=1;exitY=0.5;exitDx=0;exitDy=0;entryX=1;entryY=0.5;entryDx=0;entryDy=0;fontSize=30;fontColor=#990000;startArrow=none;startFill=0;endArrow=classic;endFill=1;strokeWidth=2;fillColor=#f8cecc;strokeColor=#b85450;" parent="1" source="653" target="643" edge="1">
                    <mxGeometry relative="1" as="geometry">
                        <Array as="points"/>
                    </mxGeometry>
                </mxCell>
                <mxCell id="653" value="" style="rounded=0;whiteSpace=wrap;html=1;glass=0;strokeColor=#000000;strokeWidth=4;fillColor=#FFD966;" parent="1" vertex="1">
                    <mxGeometry x="4505" y="832.2500000000001" width="20" height="36" as="geometry"/>
                </mxCell>
                <mxCell id="654" value="" style="endArrow=none;html=1;rounded=0;startSize=1;endSize=1;strokeColor=#000000;strokeWidth=4;jumpStyle=none;jumpSize=6;" parent="1" edge="1">
                    <mxGeometry width="50" height="50" relative="1" as="geometry">
                        <mxPoint x="4504.999999999998" y="866.25" as="sourcePoint"/>
                        <mxPoint x="4514.999999999998" y="855.75" as="targetPoint"/>
                    </mxGeometry>
                </mxCell>
                <mxCell id="655" value="" style="endArrow=none;html=1;rounded=0;startSize=1;endSize=1;strokeColor=#000000;strokeWidth=4;jumpStyle=none;jumpSize=6;" parent="1" edge="1">
                    <mxGeometry width="50" height="50" relative="1" as="geometry">
                        <mxPoint x="4514.999999999998" y="855.75" as="sourcePoint"/>
                        <mxPoint x="4524.999999999998" y="865.75" as="targetPoint"/>
                    </mxGeometry>
                </mxCell>
                <mxCell id="656" style="edgeStyle=orthogonalEdgeStyle;rounded=0;jumpStyle=none;jumpSize=6;orthogonalLoop=1;jettySize=auto;html=1;entryX=0.214;entryY=0.991;entryDx=0;entryDy=0;startArrow=none;startFill=0;endArrow=classic;endFill=1;startSize=1;endSize=1;strokeColor=#000000;strokeWidth=2;entryPerimeter=0;" parent="1" source="648" target="659" edge="1">
                    <mxGeometry relative="1" as="geometry">
                        <Array as="points">
                            <mxPoint x="4445" y="887.83"/>
                            <mxPoint x="4445" y="849.83"/>
                            <mxPoint x="4466" y="849.83"/>
                        </Array>
                    </mxGeometry>
                </mxCell>
                <mxCell id="657" style="rounded=1;orthogonalLoop=1;jettySize=auto;html=1;exitX=0;exitY=0.5;exitDx=0;exitDy=0;entryX=0;entryY=0.5;entryDx=0;entryDy=0;fontSize=30;fontColor=#990000;startArrow=none;startFill=0;endArrow=classic;endFill=1;strokeWidth=2;edgeStyle=orthogonalEdgeStyle;" parent="1" source="643" target="648" edge="1">
                    <mxGeometry relative="1" as="geometry">
                        <Array as="points">
                            <mxPoint x="4365" y="849.83"/>
                            <mxPoint x="4365" y="887.83"/>
                            <mxPoint x="4395" y="887.83"/>
                        </Array>
                    </mxGeometry>
                </mxCell>
                <mxCell id="658" style="edgeStyle=orthogonalEdgeStyle;orthogonalLoop=1;jettySize=auto;html=1;entryX=0;entryY=0.25;entryDx=0;entryDy=0;fontSize=12;fontColor=#000000;strokeWidth=2;endSize=0;rounded=1;fillColor=#f8cecc;strokeColor=#b85450;" parent="1" source="659" target="653" edge="1">
                    <mxGeometry relative="1" as="geometry">
                        <Array as="points">
                            <mxPoint x="4495" y="861.83"/>
                            <mxPoint x="4495" y="840.83"/>
                        </Array>
                    </mxGeometry>
                </mxCell>
                <mxCell id="659" value="" style="shape=trapezoid;perimeter=trapezoidPerimeter;whiteSpace=wrap;html=1;fixedSize=1;fontSize=12;fontColor=#000000;strokeWidth=1;fillColor=#FFD966;rotation=90;size=7.5;" parent="1" vertex="1">
                    <mxGeometry x="4451.63" y="855.75" width="41.25" height="12.5" as="geometry"/>
                </mxCell>
                <mxCell id="660" value="" style="endArrow=none;html=1;rounded=1;fontSize=12;fontColor=#000000;startSize=0;endSize=0;strokeWidth=4;entryX=0.5;entryY=0;entryDx=0;entryDy=0;startArrow=none;startFill=0;endFill=0;" parent="1" target="643" edge="1">
                    <mxGeometry width="50" height="50" relative="1" as="geometry">
                        <mxPoint x="4432" y="672.8299999999999" as="sourcePoint"/>
                        <mxPoint x="4425" y="662.83" as="targetPoint"/>
                    </mxGeometry>
                </mxCell>
                <mxCell id="662" style="edgeStyle=orthogonalEdgeStyle;rounded=0;orthogonalLoop=1;jettySize=auto;html=1;fontSize=30;fontColor=#990000;startArrow=none;startFill=0;endArrow=none;endFill=0;strokeWidth=5;fillColor=#f8cecc;" parent="1" edge="1">
                    <mxGeometry relative="1" as="geometry">
                        <mxPoint x="4324.91" y="850.1499999999996" as="targetPoint"/>
                        <Array as="points">
                            <mxPoint x="4304.91" y="850.15"/>
                            <mxPoint x="4304.91" y="850.15"/>
                        </Array>
                        <mxPoint x="4260" y="849.8299999999999" as="sourcePoint"/>
                    </mxGeometry>
                </mxCell>
                <mxCell id="663" value="" style="ellipse;whiteSpace=wrap;html=1;aspect=fixed;fontSize=30;strokeColor=#000000;fillColor=#FFD966;opacity=80;" parent="1" vertex="1">
                    <mxGeometry x="4604.83" y="740.83" width="214.83" height="214.83" as="geometry"/>
                </mxCell>
                <mxCell id="664" value="" style="ellipse;whiteSpace=wrap;html=1;aspect=fixed;fillColor=#67AB9F;strokeWidth=4;strokeColor=#000000;" parent="1" vertex="1">
                    <mxGeometry x="4691.459999999999" y="782.74" width="40" height="40" as="geometry"/>
                </mxCell>
                <mxCell id="665" value="" style="endArrow=none;html=1;rounded=0;strokeColor=#000000;strokeWidth=4;exitX=0;exitY=0;exitDx=0;exitDy=0;entryX=1;entryY=1;entryDx=0;entryDy=0;" parent="1" source="664" target="664" edge="1">
                    <mxGeometry width="50" height="50" relative="1" as="geometry">
                        <mxPoint x="4707.24" y="814.49" as="sourcePoint"/>
                        <mxPoint x="4732.24" y="783.24" as="targetPoint"/>
                    </mxGeometry>
                </mxCell>
                <mxCell id="666" value="" style="endArrow=none;html=1;rounded=0;strokeColor=#000000;strokeWidth=4;exitX=0;exitY=1;exitDx=0;exitDy=0;entryX=1;entryY=0;entryDx=0;entryDy=0;" parent="1" source="664" target="664" edge="1">
                    <mxGeometry width="50" height="50" relative="1" as="geometry">
                        <mxPoint x="4663.097864376269" y="759.3123304703363" as="sourcePoint"/>
                        <mxPoint x="4691.551484117605" y="794.4534181196966" as="targetPoint"/>
                    </mxGeometry>
                </mxCell>
                <mxCell id="667" style="edgeStyle=orthogonalEdgeStyle;jumpStyle=none;jumpSize=6;orthogonalLoop=1;jettySize=auto;html=1;entryX=0;entryY=0.5;entryDx=0;entryDy=0;startArrow=none;startFill=0;endArrow=classic;endFill=1;startSize=1;endSize=1;strokeColor=#000000;strokeWidth=3;rounded=1;exitX=0.5;exitY=0;exitDx=0;exitDy=0;" parent="1" target="664" edge="1">
                    <mxGeometry relative="1" as="geometry">
                        <Array as="points">
                            <mxPoint x="4667.83" y="802.83"/>
                            <mxPoint x="4691.83" y="802.83"/>
                        </Array>
                        <mxPoint x="4667.539999999999" y="823.7399999999998" as="sourcePoint"/>
                    </mxGeometry>
                </mxCell>
                <mxCell id="668" value="" style="ellipse;whiteSpace=wrap;html=1;aspect=fixed;fillColor=#e1d5e7;strokeColor=#000000;strokeWidth=4;" parent="1" vertex="1">
                    <mxGeometry x="4674.83" y="866.2500000000001" width="40" height="40" as="geometry"/>
                </mxCell>
                <mxCell id="669" value="" style="endArrow=none;html=1;rounded=0;strokeColor=#000000;entryX=0.5;entryY=0;entryDx=0;entryDy=0;exitX=0.5;exitY=1;exitDx=0;exitDy=0;strokeWidth=4;" parent="1" source="668" target="668" edge="1">
                    <mxGeometry width="50" height="50" relative="1" as="geometry">
                        <mxPoint x="4702.24" y="829.24" as="sourcePoint"/>
                        <mxPoint x="4752.24" y="779.24" as="targetPoint"/>
                    </mxGeometry>
                </mxCell>
                <mxCell id="670" style="edgeStyle=orthogonalEdgeStyle;rounded=1;jumpStyle=none;jumpSize=6;orthogonalLoop=1;jettySize=auto;html=1;entryX=0.5;entryY=0;entryDx=0;entryDy=0;startArrow=none;startFill=0;endArrow=classic;endFill=1;startSize=1;endSize=1;strokeColor=#000000;strokeWidth=4;" parent="1" source="664" target="668" edge="1">
                    <mxGeometry relative="1" as="geometry"/>
                </mxCell>
                <mxCell id="671" value="" style="endArrow=none;html=1;rounded=0;strokeColor=#000000;entryX=0;entryY=0.5;entryDx=0;entryDy=0;exitX=1;exitY=0.5;exitDx=0;exitDy=0;strokeWidth=4;" parent="1" source="668" target="668" edge="1">
                    <mxGeometry width="50" height="50" relative="1" as="geometry">
                        <mxPoint x="4752.24" y="729.24" as="sourcePoint"/>
                        <mxPoint x="4752.24" y="669.24" as="targetPoint"/>
                    </mxGeometry>
                </mxCell>
                <mxCell id="672" style="edgeStyle=orthogonalEdgeStyle;rounded=1;orthogonalLoop=1;jettySize=auto;html=1;exitX=1;exitY=0.5;exitDx=0;exitDy=0;entryX=1;entryY=0.5;entryDx=0;entryDy=0;fontSize=30;fontColor=#990000;startArrow=none;startFill=0;endArrow=classic;endFill=1;strokeWidth=2;fillColor=#f8cecc;strokeColor=#b85450;" parent="1" source="673" target="663" edge="1">
                    <mxGeometry relative="1" as="geometry">
                        <Array as="points"/>
                    </mxGeometry>
                </mxCell>
                <mxCell id="673" value="" style="rounded=0;whiteSpace=wrap;html=1;glass=0;strokeColor=#000000;strokeWidth=4;fillColor=#FFD966;" parent="1" vertex="1">
                    <mxGeometry x="4784.83" y="830.2500000000001" width="20" height="36" as="geometry"/>
                </mxCell>
                <mxCell id="674" value="" style="endArrow=none;html=1;rounded=0;startSize=1;endSize=1;strokeColor=#000000;strokeWidth=4;jumpStyle=none;jumpSize=6;" parent="1" edge="1">
                    <mxGeometry width="50" height="50" relative="1" as="geometry">
                        <mxPoint x="4784.829999999998" y="864.25" as="sourcePoint"/>
                        <mxPoint x="4794.829999999998" y="853.75" as="targetPoint"/>
                    </mxGeometry>
                </mxCell>
                <mxCell id="675" value="" style="endArrow=none;html=1;rounded=0;startSize=1;endSize=1;strokeColor=#000000;strokeWidth=4;jumpStyle=none;jumpSize=6;" parent="1" edge="1">
                    <mxGeometry width="50" height="50" relative="1" as="geometry">
                        <mxPoint x="4794.829999999998" y="853.75" as="sourcePoint"/>
                        <mxPoint x="4804.829999999998" y="863.75" as="targetPoint"/>
                    </mxGeometry>
                </mxCell>
                <mxCell id="676" style="edgeStyle=orthogonalEdgeStyle;rounded=0;jumpStyle=none;jumpSize=6;orthogonalLoop=1;jettySize=auto;html=1;entryX=0.214;entryY=0.991;entryDx=0;entryDy=0;startArrow=none;startFill=0;endArrow=classic;endFill=1;startSize=1;endSize=1;strokeColor=#000000;strokeWidth=2;entryPerimeter=0;" parent="1" source="668" target="679" edge="1">
                    <mxGeometry relative="1" as="geometry">
                        <Array as="points">
                            <mxPoint x="4724.83" y="885.83"/>
                            <mxPoint x="4724.83" y="847.83"/>
                            <mxPoint x="4745.83" y="847.83"/>
                        </Array>
                    </mxGeometry>
                </mxCell>
                <mxCell id="677" style="rounded=1;orthogonalLoop=1;jettySize=auto;html=1;exitX=0;exitY=0.5;exitDx=0;exitDy=0;entryX=0;entryY=0.5;entryDx=0;entryDy=0;fontSize=30;fontColor=#990000;startArrow=none;startFill=0;endArrow=classic;endFill=1;strokeWidth=2;edgeStyle=orthogonalEdgeStyle;" parent="1" source="663" target="668" edge="1">
                    <mxGeometry relative="1" as="geometry">
                        <Array as="points">
                            <mxPoint x="4644.83" y="847.83"/>
                            <mxPoint x="4644.83" y="885.83"/>
                            <mxPoint x="4674.83" y="885.83"/>
                        </Array>
                    </mxGeometry>
                </mxCell>
                <mxCell id="678" style="edgeStyle=orthogonalEdgeStyle;orthogonalLoop=1;jettySize=auto;html=1;entryX=0;entryY=0.25;entryDx=0;entryDy=0;fontSize=12;fontColor=#000000;strokeWidth=2;endSize=0;rounded=1;fillColor=#f8cecc;strokeColor=#b85450;" parent="1" source="679" target="673" edge="1">
                    <mxGeometry relative="1" as="geometry">
                        <Array as="points">
                            <mxPoint x="4774.83" y="859.83"/>
                            <mxPoint x="4774.83" y="838.83"/>
                        </Array>
                    </mxGeometry>
                </mxCell>
                <mxCell id="679" value="" style="shape=trapezoid;perimeter=trapezoidPerimeter;whiteSpace=wrap;html=1;fixedSize=1;fontSize=12;fontColor=#000000;strokeWidth=1;fillColor=#FFD966;rotation=90;size=7.5;" parent="1" vertex="1">
                    <mxGeometry x="4731.46" y="853.75" width="41.25" height="12.5" as="geometry"/>
                </mxCell>
                <mxCell id="681" style="edgeStyle=orthogonalEdgeStyle;rounded=0;orthogonalLoop=1;jettySize=auto;html=1;fontSize=30;fontColor=#990000;startArrow=none;startFill=0;endArrow=none;endFill=0;strokeWidth=5;fillColor=#f8cecc;" parent="1" edge="1">
                    <mxGeometry relative="1" as="geometry">
                        <mxPoint x="4604.74" y="850.1499999999996" as="targetPoint"/>
                        <Array as="points">
                            <mxPoint x="4584.74" y="850.15"/>
                            <mxPoint x="4584.74" y="850.15"/>
                        </Array>
                        <mxPoint x="4539.83" y="849.8299999999999" as="sourcePoint"/>
                    </mxGeometry>
                </mxCell>
                <mxCell id="682" value="" style="ellipse;whiteSpace=wrap;html=1;aspect=fixed;fontSize=30;strokeColor=#000000;fillColor=#FFD966;opacity=80;" parent="1" vertex="1">
                    <mxGeometry x="4884.66" y="738.83" width="214.83" height="214.83" as="geometry"/>
                </mxCell>
                <mxCell id="683" value="" style="ellipse;whiteSpace=wrap;html=1;aspect=fixed;fillColor=#67AB9F;strokeWidth=4;strokeColor=#000000;" parent="1" vertex="1">
                    <mxGeometry x="4971.289999999999" y="780.74" width="40" height="40" as="geometry"/>
                </mxCell>
                <mxCell id="684" value="" style="endArrow=none;html=1;rounded=0;strokeColor=#000000;strokeWidth=4;exitX=0;exitY=0;exitDx=0;exitDy=0;entryX=1;entryY=1;entryDx=0;entryDy=0;" parent="1" source="683" target="683" edge="1">
                    <mxGeometry width="50" height="50" relative="1" as="geometry">
                        <mxPoint x="4987.07" y="812.49" as="sourcePoint"/>
                        <mxPoint x="5012.07" y="781.24" as="targetPoint"/>
                    </mxGeometry>
                </mxCell>
                <mxCell id="685" value="" style="endArrow=none;html=1;rounded=0;strokeColor=#000000;strokeWidth=4;exitX=0;exitY=1;exitDx=0;exitDy=0;entryX=1;entryY=0;entryDx=0;entryDy=0;" parent="1" source="683" target="683" edge="1">
                    <mxGeometry width="50" height="50" relative="1" as="geometry">
                        <mxPoint x="4942.927864376269" y="757.3123304703363" as="sourcePoint"/>
                        <mxPoint x="4971.3814841176045" y="792.4534181196966" as="targetPoint"/>
                    </mxGeometry>
                </mxCell>
                <mxCell id="686" style="edgeStyle=orthogonalEdgeStyle;jumpStyle=none;jumpSize=6;orthogonalLoop=1;jettySize=auto;html=1;entryX=0;entryY=0.5;entryDx=0;entryDy=0;startArrow=none;startFill=0;endArrow=classic;endFill=1;startSize=1;endSize=1;strokeColor=#000000;strokeWidth=3;rounded=1;exitX=0.5;exitY=0;exitDx=0;exitDy=0;" parent="1" target="683" edge="1">
                    <mxGeometry relative="1" as="geometry">
                        <Array as="points">
                            <mxPoint x="4947.66" y="800.83"/>
                            <mxPoint x="4971.66" y="800.83"/>
                        </Array>
                        <mxPoint x="4947.369999999999" y="821.7399999999998" as="sourcePoint"/>
                    </mxGeometry>
                </mxCell>
                <mxCell id="687" value="" style="ellipse;whiteSpace=wrap;html=1;aspect=fixed;fillColor=#e1d5e7;strokeColor=#000000;strokeWidth=4;" parent="1" vertex="1">
                    <mxGeometry x="4954.66" y="864.2500000000001" width="40" height="40" as="geometry"/>
                </mxCell>
                <mxCell id="688" value="" style="endArrow=none;html=1;rounded=0;strokeColor=#000000;entryX=0.5;entryY=0;entryDx=0;entryDy=0;exitX=0.5;exitY=1;exitDx=0;exitDy=0;strokeWidth=4;" parent="1" source="687" target="687" edge="1">
                    <mxGeometry width="50" height="50" relative="1" as="geometry">
                        <mxPoint x="4982.07" y="827.24" as="sourcePoint"/>
                        <mxPoint x="5032.07" y="777.24" as="targetPoint"/>
                    </mxGeometry>
                </mxCell>
                <mxCell id="689" style="edgeStyle=orthogonalEdgeStyle;rounded=1;jumpStyle=none;jumpSize=6;orthogonalLoop=1;jettySize=auto;html=1;entryX=0.5;entryY=0;entryDx=0;entryDy=0;startArrow=none;startFill=0;endArrow=classic;endFill=1;startSize=1;endSize=1;strokeColor=#000000;strokeWidth=4;" parent="1" source="683" target="687" edge="1">
                    <mxGeometry relative="1" as="geometry"/>
                </mxCell>
                <mxCell id="690" value="" style="endArrow=none;html=1;rounded=0;strokeColor=#000000;entryX=0;entryY=0.5;entryDx=0;entryDy=0;exitX=1;exitY=0.5;exitDx=0;exitDy=0;strokeWidth=4;" parent="1" source="687" target="687" edge="1">
                    <mxGeometry width="50" height="50" relative="1" as="geometry">
                        <mxPoint x="5032.07" y="727.24" as="sourcePoint"/>
                        <mxPoint x="5032.07" y="667.24" as="targetPoint"/>
                    </mxGeometry>
                </mxCell>
                <mxCell id="691" style="edgeStyle=orthogonalEdgeStyle;rounded=1;orthogonalLoop=1;jettySize=auto;html=1;exitX=1;exitY=0.5;exitDx=0;exitDy=0;entryX=1;entryY=0.5;entryDx=0;entryDy=0;fontSize=30;fontColor=#990000;startArrow=none;startFill=0;endArrow=classic;endFill=1;strokeWidth=2;fillColor=#f8cecc;strokeColor=#b85450;" parent="1" source="692" target="682" edge="1">
                    <mxGeometry relative="1" as="geometry">
                        <Array as="points"/>
                    </mxGeometry>
                </mxCell>
                <mxCell id="692" value="" style="rounded=0;whiteSpace=wrap;html=1;glass=0;strokeColor=#000000;strokeWidth=4;fillColor=#FFD966;" parent="1" vertex="1">
                    <mxGeometry x="5064.66" y="828.2500000000001" width="20" height="36" as="geometry"/>
                </mxCell>
                <mxCell id="693" value="" style="endArrow=none;html=1;rounded=0;startSize=1;endSize=1;strokeColor=#000000;strokeWidth=4;jumpStyle=none;jumpSize=6;" parent="1" edge="1">
                    <mxGeometry width="50" height="50" relative="1" as="geometry">
                        <mxPoint x="5064.659999999998" y="862.25" as="sourcePoint"/>
                        <mxPoint x="5074.659999999998" y="851.75" as="targetPoint"/>
                    </mxGeometry>
                </mxCell>
                <mxCell id="694" value="" style="endArrow=none;html=1;rounded=0;startSize=1;endSize=1;strokeColor=#000000;strokeWidth=4;jumpStyle=none;jumpSize=6;" parent="1" edge="1">
                    <mxGeometry width="50" height="50" relative="1" as="geometry">
                        <mxPoint x="5074.659999999998" y="851.75" as="sourcePoint"/>
                        <mxPoint x="5084.659999999998" y="861.75" as="targetPoint"/>
                    </mxGeometry>
                </mxCell>
                <mxCell id="695" style="edgeStyle=orthogonalEdgeStyle;rounded=0;jumpStyle=none;jumpSize=6;orthogonalLoop=1;jettySize=auto;html=1;entryX=0.214;entryY=0.991;entryDx=0;entryDy=0;startArrow=none;startFill=0;endArrow=classic;endFill=1;startSize=1;endSize=1;strokeColor=#000000;strokeWidth=2;entryPerimeter=0;" parent="1" source="687" target="698" edge="1">
                    <mxGeometry relative="1" as="geometry">
                        <Array as="points">
                            <mxPoint x="5004.66" y="883.83"/>
                            <mxPoint x="5004.66" y="845.83"/>
                            <mxPoint x="5025.66" y="845.83"/>
                        </Array>
                    </mxGeometry>
                </mxCell>
                <mxCell id="696" style="rounded=1;orthogonalLoop=1;jettySize=auto;html=1;exitX=0;exitY=0.5;exitDx=0;exitDy=0;entryX=0;entryY=0.5;entryDx=0;entryDy=0;fontSize=30;fontColor=#990000;startArrow=none;startFill=0;endArrow=classic;endFill=1;strokeWidth=2;edgeStyle=orthogonalEdgeStyle;" parent="1" source="682" target="687" edge="1">
                    <mxGeometry relative="1" as="geometry">
                        <Array as="points">
                            <mxPoint x="4924.66" y="845.83"/>
                            <mxPoint x="4924.66" y="883.83"/>
                            <mxPoint x="4954.66" y="883.83"/>
                        </Array>
                    </mxGeometry>
                </mxCell>
                <mxCell id="697" style="edgeStyle=orthogonalEdgeStyle;orthogonalLoop=1;jettySize=auto;html=1;entryX=0;entryY=0.25;entryDx=0;entryDy=0;fontSize=12;fontColor=#000000;strokeWidth=2;endSize=0;rounded=1;fillColor=#f8cecc;strokeColor=#b85450;" parent="1" source="698" target="692" edge="1">
                    <mxGeometry relative="1" as="geometry">
                        <Array as="points">
                            <mxPoint x="5054.66" y="857.83"/>
                            <mxPoint x="5054.66" y="836.83"/>
                        </Array>
                    </mxGeometry>
                </mxCell>
                <mxCell id="698" value="" style="shape=trapezoid;perimeter=trapezoidPerimeter;whiteSpace=wrap;html=1;fixedSize=1;fontSize=12;fontColor=#000000;strokeWidth=1;fillColor=#FFD966;rotation=90;size=7.5;" parent="1" vertex="1">
                    <mxGeometry x="5011.29" y="851.75" width="41.25" height="12.5" as="geometry"/>
                </mxCell>
                <mxCell id="700" style="edgeStyle=orthogonalEdgeStyle;rounded=0;orthogonalLoop=1;jettySize=auto;html=1;fontSize=30;fontColor=#990000;startArrow=none;startFill=0;endArrow=none;endFill=0;strokeWidth=5;fillColor=#f8cecc;" parent="1" edge="1">
                    <mxGeometry relative="1" as="geometry">
                        <mxPoint x="4884.57" y="848.1499999999996" as="targetPoint"/>
                        <Array as="points">
                            <mxPoint x="4864.57" y="848.15"/>
                            <mxPoint x="4864.57" y="848.15"/>
                        </Array>
                        <mxPoint x="4819.66" y="847.8299999999999" as="sourcePoint"/>
                    </mxGeometry>
                </mxCell>
                <mxCell id="701" value="O0" style="whiteSpace=wrap;html=1;aspect=fixed;strokeWidth=3;fontSize=50;fontStyle=1;fillColor=#CCFFCC;" parent="1" vertex="1">
                    <mxGeometry x="4361.629999999999" y="-52" width="140" height="140" as="geometry"/>
                </mxCell>
                <mxCell id="702" value="" style="rounded=0;whiteSpace=wrap;html=1;fontSize=50;fontColor=#000000;strokeColor=#000000;strokeWidth=6;fillColor=#000000;" parent="1" vertex="1">
                    <mxGeometry x="4416.629999999999" y="87.69000000000005" width="30" height="11" as="geometry"/>
                </mxCell>
                <mxCell id="703" value="O1" style="whiteSpace=wrap;html=1;aspect=fixed;strokeWidth=3;fontSize=50;fontStyle=1;fillColor=#CCFFCC;" parent="1" vertex="1">
                    <mxGeometry x="4642.25" y="-54" width="140" height="140" as="geometry"/>
                </mxCell>
                <mxCell id="704" value="" style="rounded=0;whiteSpace=wrap;html=1;fontSize=50;fontColor=#000000;strokeColor=#000000;strokeWidth=6;fillColor=#000000;" parent="1" vertex="1">
                    <mxGeometry x="4697.25" y="85.69000000000005" width="30" height="11" as="geometry"/>
                </mxCell>
                <mxCell id="705" value="O2" style="whiteSpace=wrap;html=1;aspect=fixed;strokeWidth=3;fontSize=50;fontStyle=1;fillColor=#CCFFCC;" parent="1" vertex="1">
                    <mxGeometry x="4922.08" y="-56" width="140" height="140" as="geometry"/>
                </mxCell>
                <mxCell id="706" value="" style="rounded=0;whiteSpace=wrap;html=1;fontSize=50;fontColor=#000000;strokeColor=#000000;strokeWidth=6;fillColor=#000000;" parent="1" vertex="1">
                    <mxGeometry x="4977.08" y="83.69000000000005" width="30" height="11" as="geometry"/>
                </mxCell>
                <mxCell id="707" value="I0" style="whiteSpace=wrap;html=1;aspect=fixed;strokeWidth=3;fontSize=50;fontStyle=1;fillColor=#FFFFCC;" parent="1" vertex="1">
                    <mxGeometry x="4110" y="205.42000000000002" width="140" height="140" as="geometry"/>
                </mxCell>
                <mxCell id="708" value="" style="rounded=0;whiteSpace=wrap;html=1;fontSize=50;fontColor=#000000;strokeColor=#000000;strokeWidth=6;fillColor=#000000;rotation=90;" parent="1" vertex="1">
                    <mxGeometry x="4240" y="269.9200000000001" width="30" height="11" as="geometry"/>
                </mxCell>
                <mxCell id="709" value="" style="endArrow=none;html=1;rounded=1;fontSize=12;fontColor=#000000;startSize=0;endSize=0;strokeWidth=4;entryX=0.5;entryY=0;entryDx=0;entryDy=0;startArrow=none;startFill=0;endFill=0;exitX=0.5;exitY=1;exitDx=0;exitDy=0;" parent="1" edge="1">
                    <mxGeometry width="50" height="50" relative="1" as="geometry">
                        <mxPoint x="4716.725" y="380.8299999999999" as="sourcePoint"/>
                        <mxPoint x="4716.725" y="456" as="targetPoint"/>
                    </mxGeometry>
                </mxCell>
                <mxCell id="710" value="" style="endArrow=none;html=1;rounded=1;fontSize=12;fontColor=#000000;startSize=0;endSize=0;strokeWidth=4;entryX=0.5;entryY=0;entryDx=0;entryDy=0;startArrow=none;startFill=0;endFill=0;" parent="1" edge="1">
                    <mxGeometry width="50" height="50" relative="1" as="geometry">
                        <mxPoint x="4715.57" y="670.8299999999999" as="sourcePoint"/>
                        <mxPoint x="4715.985000000001" y="740.8299999999999" as="targetPoint"/>
                    </mxGeometry>
                </mxCell>
                <mxCell id="711" value="" style="endArrow=none;html=1;rounded=1;fontSize=12;fontColor=#000000;startSize=0;endSize=0;strokeWidth=4;entryX=0.5;entryY=0;entryDx=0;entryDy=0;startArrow=none;startFill=0;endFill=0;exitX=0.5;exitY=1;exitDx=0;exitDy=0;" parent="1" edge="1">
                    <mxGeometry width="50" height="50" relative="1" as="geometry">
                        <mxPoint x="4996.555" y="378.8299999999999" as="sourcePoint"/>
                        <mxPoint x="4996.555" y="454" as="targetPoint"/>
                    </mxGeometry>
                </mxCell>
                <mxCell id="712" value="" style="endArrow=none;html=1;rounded=1;fontSize=12;fontColor=#000000;startSize=0;endSize=0;strokeWidth=4;entryX=0.5;entryY=0;entryDx=0;entryDy=0;startArrow=none;startFill=0;endFill=0;" parent="1" edge="1">
                    <mxGeometry width="50" height="50" relative="1" as="geometry">
                        <mxPoint x="4995.4" y="668.8299999999999" as="sourcePoint"/>
                        <mxPoint x="4995.8150000000005" y="738.8299999999999" as="targetPoint"/>
                    </mxGeometry>
                </mxCell>
                <mxCell id="713" value="I1" style="whiteSpace=wrap;html=1;aspect=fixed;strokeWidth=3;fontSize=50;fontStyle=1;fillColor=#FFFFCC;" parent="1" vertex="1">
                    <mxGeometry x="4110" y="495.42" width="140" height="140" as="geometry"/>
                </mxCell>
                <mxCell id="714" value="" style="rounded=0;whiteSpace=wrap;html=1;fontSize=50;fontColor=#000000;strokeColor=#000000;strokeWidth=6;fillColor=#000000;rotation=90;" parent="1" vertex="1">
                    <mxGeometry x="4240" y="559.9200000000001" width="30" height="11" as="geometry"/>
                </mxCell>
                <mxCell id="715" value="I2" style="whiteSpace=wrap;html=1;aspect=fixed;strokeWidth=3;fontSize=50;fontStyle=1;fillColor=#FFFFCC;" parent="1" vertex="1">
                    <mxGeometry x="4110" y="780.24" width="140" height="140" as="geometry"/>
                </mxCell>
                <mxCell id="716" value="" style="rounded=0;whiteSpace=wrap;html=1;fontSize=50;fontColor=#000000;strokeColor=#000000;strokeWidth=6;fillColor=#000000;rotation=90;" parent="1" vertex="1">
                    <mxGeometry x="4240" y="844.74" width="30" height="11" as="geometry"/>
                </mxCell>
                <mxCell id="825" value="c = 0" style="text;html=1;strokeColor=none;fillColor=none;align=center;verticalAlign=middle;whiteSpace=wrap;rounded=0;fontSize=60;fontStyle=1" parent="1" vertex="1">
                    <mxGeometry x="3940" y="267.41" width="160" height="20" as="geometry"/>
                </mxCell>
                <mxCell id="826" value="c = 1" style="text;html=1;strokeColor=none;fillColor=none;align=center;verticalAlign=middle;whiteSpace=wrap;rounded=0;fontSize=60;fontStyle=1" parent="1" vertex="1">
                    <mxGeometry x="3940" y="552.9" width="159" height="20" as="geometry"/>
                </mxCell>
                <mxCell id="827" value="c = 2" style="text;html=1;strokeColor=none;fillColor=none;align=center;verticalAlign=middle;whiteSpace=wrap;rounded=0;fontSize=60;fontStyle=1" parent="1" vertex="1">
                    <mxGeometry x="3930" y="837.74" width="170" height="20" as="geometry"/>
                </mxCell>
                <mxCell id="828" value="f = 0" style="text;html=1;strokeColor=none;fillColor=none;align=center;verticalAlign=middle;whiteSpace=wrap;rounded=0;fontSize=60;fontStyle=1" parent="1" vertex="1">
                    <mxGeometry x="4361.63" y="-100" width="130" height="20" as="geometry"/>
                </mxCell>
                <mxCell id="829" value="f = 1" style="text;html=1;strokeColor=none;fillColor=none;align=center;verticalAlign=middle;whiteSpace=wrap;rounded=0;fontSize=60;fontStyle=1" parent="1" vertex="1">
                    <mxGeometry x="4654.83" y="-100" width="130" height="20" as="geometry"/>
                </mxCell>
                <mxCell id="830" value="f = 2" style="text;html=1;strokeColor=none;fillColor=none;align=center;verticalAlign=middle;whiteSpace=wrap;rounded=0;fontSize=60;fontStyle=1" parent="1" vertex="1">
                    <mxGeometry x="4935.4" y="-100" width="130" height="20" as="geometry"/>
                </mxCell>
                <mxCell id="836" value="" style="group" parent="1" vertex="1" connectable="0">
                    <mxGeometry x="4374.699999999999" y="250.90999999999997" width="33.5" height="33.00999999999999" as="geometry"/>
                </mxCell>
                <mxCell id="543" value="" style="whiteSpace=wrap;html=1;aspect=fixed;strokeColor=#000000;strokeWidth=2;fillColor=#E1D5E7;" parent="836" vertex="1">
                    <mxGeometry width="27.5" height="27.5" as="geometry"/>
                </mxCell>
                <mxCell id="834" value="" style="whiteSpace=wrap;html=1;aspect=fixed;strokeColor=#000000;strokeWidth=2;fillColor=#E1D5E7;" parent="836" vertex="1">
                    <mxGeometry x="3" y="3" width="27.5" height="27.5" as="geometry"/>
                </mxCell>
                <mxCell id="835" value="" style="whiteSpace=wrap;html=1;aspect=fixed;strokeColor=#000000;strokeWidth=2;fillColor=#E1D5E7;" parent="836" vertex="1">
                    <mxGeometry x="6" y="5.509999999999991" width="27.5" height="27.5" as="geometry"/>
                </mxCell>
                <mxCell id="837" value="" style="group" parent="1" vertex="1" connectable="0">
                    <mxGeometry x="4649.999999999999" y="249.99999999999997" width="33.5" height="33.00999999999999" as="geometry"/>
                </mxCell>
                <mxCell id="838" value="" style="whiteSpace=wrap;html=1;aspect=fixed;strokeColor=#000000;strokeWidth=2;fillColor=#E1D5E7;" parent="837" vertex="1">
                    <mxGeometry width="27.5" height="27.5" as="geometry"/>
                </mxCell>
                <mxCell id="839" value="" style="whiteSpace=wrap;html=1;aspect=fixed;strokeColor=#000000;strokeWidth=2;fillColor=#E1D5E7;" parent="837" vertex="1">
                    <mxGeometry x="3" y="3" width="27.5" height="27.5" as="geometry"/>
                </mxCell>
                <mxCell id="840" value="" style="whiteSpace=wrap;html=1;aspect=fixed;strokeColor=#000000;strokeWidth=2;fillColor=#E1D5E7;" parent="837" vertex="1">
                    <mxGeometry x="6" y="5.509999999999991" width="27.5" height="27.5" as="geometry"/>
                </mxCell>
                <mxCell id="841" value="" style="group" parent="1" vertex="1" connectable="0">
                    <mxGeometry x="4929.999999999999" y="247" width="33.5" height="33.00999999999999" as="geometry"/>
                </mxCell>
                <mxCell id="842" value="" style="whiteSpace=wrap;html=1;aspect=fixed;strokeColor=#000000;strokeWidth=2;fillColor=#E1D5E7;" parent="841" vertex="1">
                    <mxGeometry width="27.5" height="27.5" as="geometry"/>
                </mxCell>
                <mxCell id="843" value="" style="whiteSpace=wrap;html=1;aspect=fixed;strokeColor=#000000;strokeWidth=2;fillColor=#E1D5E7;" parent="841" vertex="1">
                    <mxGeometry x="3" y="3" width="27.5" height="27.5" as="geometry"/>
                </mxCell>
                <mxCell id="844" value="" style="whiteSpace=wrap;html=1;aspect=fixed;strokeColor=#000000;strokeWidth=2;fillColor=#E1D5E7;" parent="841" vertex="1">
                    <mxGeometry x="6" y="5.509999999999991" width="27.5" height="27.5" as="geometry"/>
                </mxCell>
                <mxCell id="845" value="" style="group" parent="1" vertex="1" connectable="0">
                    <mxGeometry x="4369.999999999999" y="535.91" width="33.5" height="33.00999999999999" as="geometry"/>
                </mxCell>
                <mxCell id="846" value="" style="whiteSpace=wrap;html=1;aspect=fixed;strokeColor=#000000;strokeWidth=2;fillColor=#E1D5E7;" parent="845" vertex="1">
                    <mxGeometry width="27.5" height="27.5" as="geometry"/>
                </mxCell>
                <mxCell id="847" value="" style="whiteSpace=wrap;html=1;aspect=fixed;strokeColor=#000000;strokeWidth=2;fillColor=#E1D5E7;" parent="845" vertex="1">
                    <mxGeometry x="3" y="3" width="27.5" height="27.5" as="geometry"/>
                </mxCell>
                <mxCell id="848" value="" style="whiteSpace=wrap;html=1;aspect=fixed;strokeColor=#000000;strokeWidth=2;fillColor=#E1D5E7;" parent="845" vertex="1">
                    <mxGeometry x="6" y="5.509999999999991" width="27.5" height="27.5" as="geometry"/>
                </mxCell>
                <mxCell id="849" value="" style="group" parent="1" vertex="1" connectable="0">
                    <mxGeometry x="4645.299999999999" y="535" width="33.5" height="33.00999999999999" as="geometry"/>
                </mxCell>
                <mxCell id="850" value="" style="whiteSpace=wrap;html=1;aspect=fixed;strokeColor=#000000;strokeWidth=2;fillColor=#E1D5E7;" parent="849" vertex="1">
                    <mxGeometry width="27.5" height="27.5" as="geometry"/>
                </mxCell>
                <mxCell id="851" value="" style="whiteSpace=wrap;html=1;aspect=fixed;strokeColor=#000000;strokeWidth=2;fillColor=#E1D5E7;" parent="849" vertex="1">
                    <mxGeometry x="3" y="3" width="27.5" height="27.5" as="geometry"/>
                </mxCell>
                <mxCell id="852" value="" style="whiteSpace=wrap;html=1;aspect=fixed;strokeColor=#000000;strokeWidth=2;fillColor=#E1D5E7;" parent="849" vertex="1">
                    <mxGeometry x="6" y="5.509999999999991" width="27.5" height="27.5" as="geometry"/>
                </mxCell>
                <mxCell id="853" value="" style="group" parent="1" vertex="1" connectable="0">
                    <mxGeometry x="4925.299999999999" y="532" width="33.5" height="33.00999999999999" as="geometry"/>
                </mxCell>
                <mxCell id="854" value="" style="whiteSpace=wrap;html=1;aspect=fixed;strokeColor=#000000;strokeWidth=2;fillColor=#E1D5E7;" parent="853" vertex="1">
                    <mxGeometry width="27.5" height="27.5" as="geometry"/>
                </mxCell>
                <mxCell id="855" value="" style="whiteSpace=wrap;html=1;aspect=fixed;strokeColor=#000000;strokeWidth=2;fillColor=#E1D5E7;" parent="853" vertex="1">
                    <mxGeometry x="3" y="3" width="27.5" height="27.5" as="geometry"/>
                </mxCell>
                <mxCell id="856" value="" style="whiteSpace=wrap;html=1;aspect=fixed;strokeColor=#000000;strokeWidth=2;fillColor=#E1D5E7;" parent="853" vertex="1">
                    <mxGeometry x="6" y="5.509999999999991" width="27.5" height="27.5" as="geometry"/>
                </mxCell>
                <mxCell id="857" value="" style="group" parent="1" vertex="1" connectable="0">
                    <mxGeometry x="4369.999999999999" y="823.91" width="33.5" height="33.00999999999999" as="geometry"/>
                </mxCell>
                <mxCell id="858" value="" style="whiteSpace=wrap;html=1;aspect=fixed;strokeColor=#000000;strokeWidth=2;fillColor=#E1D5E7;" parent="857" vertex="1">
                    <mxGeometry width="27.5" height="27.5" as="geometry"/>
                </mxCell>
                <mxCell id="859" value="" style="whiteSpace=wrap;html=1;aspect=fixed;strokeColor=#000000;strokeWidth=2;fillColor=#E1D5E7;" parent="857" vertex="1">
                    <mxGeometry x="3" y="3" width="27.5" height="27.5" as="geometry"/>
                </mxCell>
                <mxCell id="860" value="" style="whiteSpace=wrap;html=1;aspect=fixed;strokeColor=#000000;strokeWidth=2;fillColor=#E1D5E7;" parent="857" vertex="1">
                    <mxGeometry x="6" y="5.509999999999991" width="27.5" height="27.5" as="geometry"/>
                </mxCell>
                <mxCell id="861" value="" style="group" parent="1" vertex="1" connectable="0">
                    <mxGeometry x="4649.999999999999" y="820.23" width="33.5" height="33.00999999999999" as="geometry"/>
                </mxCell>
                <mxCell id="862" value="" style="whiteSpace=wrap;html=1;aspect=fixed;strokeColor=#000000;strokeWidth=2;fillColor=#E1D5E7;" parent="861" vertex="1">
                    <mxGeometry width="27.5" height="27.5" as="geometry"/>
                </mxCell>
                <mxCell id="863" value="" style="whiteSpace=wrap;html=1;aspect=fixed;strokeColor=#000000;strokeWidth=2;fillColor=#E1D5E7;" parent="861" vertex="1">
                    <mxGeometry x="3" y="3" width="27.5" height="27.5" as="geometry"/>
                </mxCell>
                <mxCell id="864" value="" style="whiteSpace=wrap;html=1;aspect=fixed;strokeColor=#000000;strokeWidth=2;fillColor=#E1D5E7;" parent="861" vertex="1">
                    <mxGeometry x="6" y="5.509999999999991" width="27.5" height="27.5" as="geometry"/>
                </mxCell>
                <mxCell id="865" value="" style="group" parent="1" vertex="1" connectable="0">
                    <mxGeometry x="4929.999999999999" y="818.74" width="33.5" height="33.00999999999999" as="geometry"/>
                </mxCell>
                <mxCell id="866" value="" style="whiteSpace=wrap;html=1;aspect=fixed;strokeColor=#000000;strokeWidth=2;fillColor=#E1D5E7;" parent="865" vertex="1">
                    <mxGeometry width="27.5" height="27.5" as="geometry"/>
                </mxCell>
                <mxCell id="867" value="" style="whiteSpace=wrap;html=1;aspect=fixed;strokeColor=#000000;strokeWidth=2;fillColor=#E1D5E7;" parent="865" vertex="1">
                    <mxGeometry x="3" y="3" width="27.5" height="27.5" as="geometry"/>
                </mxCell>
                <mxCell id="868" value="" style="whiteSpace=wrap;html=1;aspect=fixed;strokeColor=#000000;strokeWidth=2;fillColor=#E1D5E7;" parent="865" vertex="1">
                    <mxGeometry x="6" y="5.509999999999991" width="27.5" height="27.5" as="geometry"/>
                </mxCell>
            </root>
        </mxGraphModel>
    </diagram>
</mxfile>